<?xml version="1.0" encoding="UTF-8" standalone="no"?>
<svg
   xmlns:svg="http://www.w3.org/2000/svg"
   xmlns="http://www.w3.org/2000/svg"
   width="800.0"
   height="240.0"

>
    <g transform="scale(2.775798811182033, -2.775798811182033)   translate(91.87235686776205,-36.7497678649424)" stroke-width="0.36025665692037845"  fill="none">
       <!-- hidden lines -->
       <g  stroke="rgb(160,160,160)" fill="none" stroke-dasharray="0.36025665692037845,0.36025665692037845" >
			<path d="M-0.9328614970100537,29.29985054122131 L-0.9328344130757806,29.299834719222495 " />
			<path d="M-10.04474361934673,24.799534432901574 L-10.04167163520831,24.95899890631635 L-10.032441554329449,25.114784564412467 L-10.01704358539021,25.266839020770043 L-9.995483398200644,25.415118713561604 L-9.967782411832289,25.5595885939889 L-9.933978082749663,25.70022181471967 L-9.894124192941764,25.836999418324442 L-9.84829113805356,25.969910025713304 L-9.796561196509089,26.098961222724064 L-9.739015428101045,26.22419933525829 L-9.675747306745324,26.345666317886973 L-9.606860795179772,26.46340672963544 L-9.532470608912774,26.577467630302664 L-9.452704092373184,26.687896432498963 L-9.367677936266672,26.794769967380752 L-9.277508193414203,26.898172078422796 L-9.182314764699795,26.9981863628259 L-9.082221455784854,27.094896074726304 L-8.97735603382253,27.188384028405 L-8.867850284172052,27.278732501497135 L-8.75384006711306,27.36602313820136 L-8.635480635124226,27.450326366022978 L-8.512926591404767,27.53171768948829 L-8.386288743400275,27.61030186765332 L-8.255674260721337,27.68618089417262 L-8.121187591141513,27.759453428415195 L-7.982930505959594,27.830214866018682 L-7.841002144441731,27.898557407300864 L-7.695499057390869,27.964570123610674 L-7.546515249891612,28.028339021695295 L-7.394142223279486,28.08994710615439 L-7.238469016384143,28.149474440047143 L-7.079582246096879,28.206998203712192 L-6.917566147313599,28.26259275185504 L-6.752502612304962,28.316329668952065 L-6.584471229566279,28.36827782301479 L-6.413549322200484,28.418503417752397 L-6.239811985888095,28.467070043165226 L-6.063332126498944,28.514038724596308 L-5.88418049740117,28.559467970262517 L-5.518134403228439,28.645929876205106 L-5.1421980843721915,28.726875195923608 L-4.756863839179545,28.80268588094207 L-4.36259305791468,28.873707657009366 L-3.9598174041446006,28.94025118399158 L-3.5489400108322515,29.002593114808473 L-3.1303366992176507,29.060977048789304 L-2.7043572287546302,29.11561437341551 L-2.2713265865578576,29.16668498700988 L-1.8315463250016304,29.214337893524117 L-1.3852959562988527,29.25869165916887 L-0.9328344130757822,29.29983471922246 " />
			<path d="M-10.044743619346733,-30.556463236607495 L-10.042587098696288,-30.586911791283054 L-10.036108506218913,-30.6146976179468 L-10.025299889064105,-30.639855986388167 L-10.010160870985203,-30.66242706009122 L-9.990698771373472,-30.682455716503473 L-9.966928724292169,-30.69999136730468 L-9.93887379751062,-30.71508777867562 L-9.906565111538292,-30.727802891566903 L-9.87004195865887,-30.738198641967756 L-9.829351760201233,-30.746340804263266 L-9.784542001632918,-30.752299529957625 L-9.73566199251887,-30.75614715113903 L-9.682767685130358,-30.757957090905474 L-9.625920092659412,-30.75780415335709 L-9.500636644809768,-30.75191582391446 " />
			<path d="M-9.500636644809749,-30.75191582391446 L-9.368714493419333,-30.74000302662643 L-9.223932908124707,-30.722448253695113 L-9.066770058144414,-30.69976419404726 L-8.897728712340209,-30.672454959905618 L-8.526199637706474,-30.605936599454417 L-8.113632179392631,-30.526658593048015 L-7.1785513318614145,-30.34254135751169 L-6.661874468740221,-30.24312926421643 L-6.115927942617312,-30.141884165699302 L-5.543044074968561,-30.040737550227966 L-4.9453425762104395,-29.941354255116085 L-4.324742201971845,-29.845154891393168 L-3.6829723885260277,-29.753336367452864 L-3.3546405226144254,-29.709387416117714 L-3.021585058718375,-29.666890548913372 L-2.6839742475796475,-29.625940462685005 L-2.341966797024967,-29.586621028089315 L-1.9957122871780149,-29.549005703246674 L-1.6453515996758163,-29.513157912640178 L-1.291017362626734,-29.479131389433007 L-0.9328344130757857,-29.446970479126197 " />
			<path d="M-0.9328344130757358,-29.446970479126193 L-0.943858356366013,-29.440584940573185 " />
			<path d="M-19.821025483686366,-30.783868325512824 L-0.9438583563660146,-29.440584940573185 " />
			<path d="M-0.9438583563660162,-29.440584940573185 L-0.9438583563660174,29.30625660207922 " />
			<path d="M-0.9328344130757342,29.29983471922247 L-0.9328344130757342,-29.446970479126197 " />
			<path d="M19.11313171641185,-31.244422628920702 L19.21425915160603,-31.305210344799054 L19.309073315750084,-31.366417207432956 L19.39753222922404,-31.428016117065155 L19.479596726238686,-31.489979800356917 L19.555230472176422,-31.552280822463466 L19.6243999796787,-31.614891599180964 L19.687074623472782,-31.6777844091596 L19.74322665393126,-31.7409314061774 L19.792831209358418,-31.804304631469346 L19.83586632699793,-31.867876026106302 L19.872312952756975,-31.931617443418297 L19.902154949642615,-31.99550066145665 L19.925379104906526,-32.05949739548946 L19.941975135895053,-32.12357931052481 L19.951935694601918,-32.18771803385635 L19.955256370921592,-32.25188516762542 " />
			<path d="M-10.044743629078408,-32.25188516762543 L-10.04114228818365,-32.1850616316637 L-10.03033999478688,-32.11827018294634 L-10.012341935920224,-32.05154289331011 L-9.987156753869742,-31.984911803783945 L-9.95479654202557,-31.91840890920351 L-9.915276839074949,-31.852066142847995 L-9.86861662154086,-31.7859153611064 L-9.814838294669917,-31.7199883281808 L-9.753967681673823,-31.654316700833824 L-9.68603401132963,-31.588932013187765 L-9.61106990394469,-31.52386566158256 L-9.529111355693077,-31.45914888949992 L-9.440197721330993,-31.39481277256091 L-9.34437169529944,-31.330888203604044 L-9.24167929122326,-31.267405877851242 L-9.132169819816374,-31.204396278168616 L-9.015895865203811,-31.141889660429243 L-8.89291325967194,-31.079916038984944 L-8.763281056858977,-31.018505172254027 L-8.627061503398693,-30.957686548431926 L-8.484320009030894,-30.897489371331588 L-8.335125115193051,-30.837942546360434 L-8.17954846210816,-30.77907466664059 L-8.017664754384624,-30.720913999279063 L-7.849551725144687,-30.66348847179451 L-7.675290098698635,-30.606825658706992 L-7.4949635517826945,-30.55095276829731 L-7.30865867337924,-30.495896629542155 L-7.116464923138604,-30.441683679231385 L-6.918474588422448,-30.38833994927367 L-6.714782739989332,-30.3358910541965 L-6.505487186343743,-30.284362178846635 L-6.29068842677054,-30.233778066296885 L-6.070489603077327,-30.184163005965008 L-5.8449964500679314,-30.135540821950432 L-5.61431724477081,-30.08793486159445 L-5.137846183400587,-29.99586255040164 L-4.641991474289119,-29.908122895839753 L-4.127705398755312,-29.824884400561743 L-3.595975635272925,-29.746306922813602 L-3.047823362649307,-29.672541369429073 L-2.484301298867252,-29.603729406015386 L-1.906491679356348,-29.540003184886668 L-1.3155041785765418,-29.481485091267434 L-0.7124737789054372,-29.42828750825368 L-0.09855859092217845,-29.380512600982854 L0.525062370726074,-29.338252120427317 L1.1571914516035706,-29.301587227187984 L1.796614657562845,-29.270588335626666 L2.4421039862017433,-29.24531497863636 L3.0924197852230924,-29.225815693309258 L3.7463131331678117,-29.212127927721998 L4.402528237949308,-29.204277969017213 L5.059804848582799,-29.20228089291949 L5.716880675477895,-29.20614053478267 L6.372493814646275,-29.21584948222409 L7.02538517116883,-29.23138908935999 L7.674300877268038,-29.252729512614597 L8.317994700341675,-29.279829768034286 L8.955230436333299,-29.31263780999663 L9.584784283843087,-29.351090631163185 L10.205447194419525,-29.395114383484152 L10.816027194518309,-29.444624520022384 L11.415351674669157,-29.499525957324487 L12.002269641454195,-29.55971325802714 L12.575653927973057,-29.625070833347895 L13.134403358549543,-29.695473165071675 L13.677444863522508,-29.77078504660655 L14.20373554005958,-29.85086184264594 L14.712264655035975,-29.93554976693845 L15.20205558613187,-30.02468617763203 L15.439628828395305,-30.070869394875608 L15.672167697420482,-30.11809988962512 L15.899560532975581,-30.16635498279894 L16.12169814584488,-30.215611503325004 L16.338473870259126,-30.265845799267094 L16.549783615114134,-30.317033749181963 L16.755525913953157,-30.369150773701968 L16.95560197368892,-30.422171847337548 L17.14991572204195,-30.47607151049393 L17.33837385367248,-30.5308238816963 L17.52088587498364,-30.586402670017524 L17.697364147574625,-30.642781187702496 L17.867723930322754,-30.699932362983045 L18.031883420074365,-30.757828753077206 L18.189763790924964,-30.816442557366674 L18.34128923206974,-30.87574563074606 L18.486386984206334,-30.935709497137584 L18.624987374472276,-30.996305363164687 L18.757023849900428,-31.05750413197798 L18.882433009376314,-31.119276417226953 L19.001154634082,-31.181592557170667 L19.11313171641183,-31.244422628920688 " />
			<path d="M8.955630442186884,-4.43262748107983 L8.955630442186884,-7.202751021201259 " />
			<path d="M-17.475537468116812,19.080644913238356 L-12.270158632758227,19.45105530663546 " />
			<path d="M-12.270158632758227,14.050781218534446 L-12.270158632758227,19.451055306635464 " />
			<path d="M-12.270158632758227,14.050781218534446 L-17.475537468116812,13.680370825137341 " />
			<path d="M-17.475537468116812,-16.167460012353086 L-12.270158632758227,-15.79704961895598 " />
			<path d="M-12.270158632758227,-21.197323707056995 L-12.270158632758227,-15.797049618955977 " />
			<path d="M-12.270158632758227,-21.197323707056995 L-17.475537468116812,-21.5677341004541 " />
			<path d="M9.67454815275168,-31.91606432139053 L9.597648583739835,-31.87434891749261 L9.511833372105155,-31.833358566138525 L9.417267324637644,-31.793171988665648 L9.314132053972518,-31.75386636277603 L9.20262562980594,-31.715517174317796 L9.082962198505223,-31.67819807231573 L8.955371571844037,-31.64198072752948 L8.82009878565244,-31.60693469481095 L8.677403629229358,-31.5731272795253 L8.527560146421225,-31.540623408292003 L8.37085610932502,-31.509485504294307 L8.20759246562639,-31.479773367396447 L8.038082760634257,-31.451544059298943 L7.862652535121901,-31.42485179395248 L7.681638700130913,-31.399747833440852 L7.4953888899387495,-31.376280389532926 L7.304260794432462,-31.354494531092676 L7.108621472170784,-31.334432097525124 L6.908846645453835,-31.31613161842442 L6.70531997875424,-31.299628239578347 L6.498432341895427,-31.284953655471355 L6.288581059392164,-31.272136048415838 L6.076169147394956,-31.26120003442839 L5.861604539703744,-31.25216661595516 L5.427668852163157,-31.239873272491657 L4.990105863475331,-31.235350409390126 L4.552275291670335,-31.238632754324293 L4.117538909348312,-31.249695104629083 L3.6892347311489213,-31.268452520812957 L3.4785250375230903,-31.280674151892732 L3.2706513836403395,-31.29476097874458 L3.0660129876459195,-31.310685947834852 L2.8650028544222192,-31.328418475506105 L2.66800702082895,-31.347924506712516 L2.4754038143253143,-31.36916658042209 L2.287563126397962,-31.392103901559985 L2.10484570219009,-31.416692419354828 L1.9276024476959615,-31.44288491193754 L1.756173755851358,-31.470631077030212 L1.5908888528142011,-31.49987762855084 L1.4320651656907941,-31.530568398948443 L1.2800077129219556,-31.562644447071964 L1.135008518499816,-31.59604417136584 L0.9973460511402465,-31.63070342817485 L0.8672846894879829,-31.666555654931013 L0.7450742143815186,-31.70353199798596 L0.6309493291528545,-31.741561444843317 L0.5251292088833788,-31.780570960537105 L0.42781707948149794,-31.82048562789427 L0.33919982739041643,-31.861228791411943 L0.2594476406756039,-31.902722204473168 L0.1887136821812483,-31.944886179618308 L0.12713379538336955,-31.987639741583603 L0.07482624350451861,-32.030900782812886 L0.03189148239108963,-32.074586221143896 L-0.001588032410587914,-32.11861215936629 L-0.014761266727461475,-32.14072641481813 L-0.025548004008852487,-32.162894046344945 L-0.033943064692346425,-32.185104409520335 L-0.03994241764789841,-32.20734683939907 L-0.0435431821134884,-32.2296106556382 L-0.044743629078407565,-32.25188516762543 " />
			<path d="M-0.044743629078407565,-32.25188516762544 L-0.043237722559428704,-32.27683278540735 L-0.03872091010426981,-32.30176537567716 L-0.031195912471858378,-32.32666791997478 L-0.02066726243939243,-32.351525417938696 L-0.0071413020719575115,-32.376322896341605 L0.009373821097687696,-32.40104541810977 L0.028868158976885994,-32.4256780913205 L0.05132996890544028,-32.450206078172535 L0.07674572072894925,-32.47461460392375 L0.1051001049488729,-32.498888965790925 L0.17055469226054765,-32.54697679962457 L0.24753604500648763,-32.59435373186974 L0.3358587083651585,-32.64090562734695 L0.4353099053043765,-32.68652033846252 L0.5456500491798169,-32.731087975382 L0.6666133209202316,-32.77450117076439 L0.7979083094088653,-32.81665533841946 L0.9392187135183665,-32.85744892526506 L1.0902041041079071,-32.89678365597739 L1.2505007441467968,-32.93456476974484 L1.4197224649888538,-32.97070124855511 L1.5974615966865007,-33.00510603646557 L1.7832899501033666,-33.03769624932864 L1.9767598484594266,-33.068393374466964 L2.1774052058235815,-33.09712345981734 L2.3847426499554834,-33.123817292087686 L2.5982726867916033,-33.148410563497976 L2.8174809037701802,-33.17084402670326 L3.041839209096141,-33.19106363752573 L3.2708071039604887,-33.20902068515189 L3.503832984649276,-33.22467190948116 L3.740355471405268,-33.23797960534325 L3.979804760840949,-33.2489117133332 L4.2216039986447855,-33.25744189704533 L4.46517066927379,-33.26354960651992 L4.709917999284502,-33.26722012774988 L4.9552563709215915,-33.26844461812806 L5.200594742558681,-33.26722012774988 L5.445342072569393,-33.26354960651992 L5.688908743198398,-33.25744189704533 L5.930707981002234,-33.2489117133332 L6.170157270437915,-33.23797960534325 L6.406679757193907,-33.22467190948116 L6.639705637882694,-33.20902068515189 L6.868673532747042,-33.19106363752573 L7.093031838073003,-33.17084402670326 L7.31224005505158,-33.148410563497976 L7.525770091887701,-33.123817292087686 L7.7331075360196015,-33.09712345981734 L7.933752893383756,-33.068393374466964 L8.127222791739817,-33.03769624932864 L8.313051145156681,-33.00510603646557 L8.49079027685433,-32.97070124855511 L8.66001199769639,-32.93456476974484 L8.820308637735279,-32.89678365597739 L8.971294028324817,-32.85744892526506 L9.112604432434319,-32.81665533841946 L9.243899420922952,-32.77450117076439 L9.364862692663365,-32.731087975382 L9.47520283653881,-32.68652033846252 L9.574654033478025,-32.64090562734695 L9.662976696836694,-32.594353731869745 L9.739958049582636,-32.54697679962457 L9.80541263689431,-32.498888965790925 L9.833767021114234,-32.47461460392375 L9.859182772937743,-32.450206078172535 L9.881644582866297,-32.4256780913205 L9.901138920745497,-32.40104541810977 L9.917654043915142,-32.376322896341605 L9.931180004282577,-32.351525417938696 L9.941708654315043,-32.32666791997478 L9.949233651947456,-32.30176537567716 L9.953750464402614,-32.27683278540735 L9.955256370921592,-32.251885167625446 " />
			<path d="M9.955256370921592,-32.25188516762544 L9.954149478815033,-32.23049612303574 L9.950829292579414,-32.2091165485919 L9.945297282249904,-32.18775591024678 L9.937555897161932,-32.16642366556918 L9.915459689613705,-32.12388212045239 L9.884579798591481,-32.081567247142765 L9.844970907173963,-32.03955397814395 L9.796703156027291,-31.997916711869266 L9.739862019197757,-31.956729180894612 L9.674548152751681,-31.91606432139053 " />
			<path d="M-9.924670617188672,22.10215355786556 L-12.270158632758227,19.451055306635464 " />
			<path d="M-17.475537468116812,21.564840203889702 L-9.924670617188672,22.102153557865556 " />
			<path d="M-9.924670617188672,8.674736672141083 L-9.924670617188672,22.10215355786556 " />
			<path d="M-12.270158632758225,14.050781218534448 L-9.92467061718867,8.674736672141083 " />
			<path d="M-17.475537468116812,8.137423318165228 L-9.924670617188672,8.674736672141083 " />
			<path d="M-9.924670617188672,-13.145951367725882 L-12.270158632758227,-15.797049618955977 " />
			<path d="M-17.475537468116812,-13.683264721701738 L-9.924670617188672,-13.145951367725882 " />
			<path d="M-9.924670617188672,-26.573368253450358 L-9.924670617188672,-13.145951367725882 " />
			<path d="M-12.270158632758225,-21.197323707056995 L-9.92467061718867,-26.573368253450358 " />
			<path d="M-17.475537468116812,-27.110681607426216 L-9.924670617188672,-26.57336825345036 " />
			<path d="M9.67454815275168,26.159135528792067 L9.67454815275168,-31.91606432139052 " />
			<path d="M-10.04474362907841,-30.790634020039757 L-9.500636644605118,-30.7519158232392 " />
			<path d="M9.955256370921592,-32.25188516762543 L9.955256370921592,26.494956375026973 " />
			<path d="M-0.044743629078407565,-32.251885167625424 L-0.044743629078407565,26.49495637502698 " />

       </g>

       <!-- solid lines -->
       <g  stroke="rgb(0,0,0)" fill="none">
			<path d="M-0.9438583563660206,29.30625660207922 L-0.9328614970100981,29.29985054122134 " />
			<path d="M8.955630442186884,-4.432627481079833 L8.330515214445967,-3.574011029673153 L7.697510049994031,-2.7102824742645852 L7.056968836118434,-1.8413493786031712 L6.409257608624109,-0.9671351151472662 L5.093909293022809,0.7973276853864055 L3.75501567214995,2.5831730297653577 L1.0261596785575149,6.214910245331168 L-0.3560516811846126,8.063842739561949 L-1.0494397749006668,8.997369390841243 L-1.7428624727203097,9.936733624841457 L-2.4348186465057697,10.88150989048351 L-3.123456089499859,11.83103876175382 L-3.8068835551375235,12.784908838598245 L-4.146209184796458,13.26367019260805 L-4.483589992692186,13.743649115376064 L-4.818693816538486,14.224795284009447 L-5.15113298020955,14.70701982483726 L-5.48046142008368,15.190194775771625 L-5.806171660245663,15.674152642457466 L-6.127692232663104,16.158686954476714 L-6.444515037403771,16.643754091056064 L-6.755999451621332,17.129189850891535 L-7.06131309714873,17.6146166401946 L-7.359540772105859,18.09961241186057 L-7.649680285445847,18.58371101774107 L-7.930637839503364,19.066402848934654 L-8.067305283055651,19.30705030998682 L-8.201222960544936,19.54713576409548 L-8.33222605125638,19.786583747451584 L-8.460142977321299,20.025316305760164 L-8.584795206453265,20.26325304800152 L-8.705997047621782,20.500311204692732 L-8.823557602468966,20.736410183481702 L-8.937242839186583,20.97139336275451 L-9.046795672443553,21.205059900981784 L-9.15196249147049,21.43721598373635 L-9.25249319008421,21.667674893081426 L-9.348141163234713,21.89625701051267 L-9.43866330355219,22.122789819900238 L-9.523819997894002,22.347107910430854 L-9.603375123891688,22.56905297954985 L-9.677096046497944,22.78847383590324 L-9.744752956806435,23.005224213235252 L-9.806095775777807,23.219077453204914 L-9.860878283275492,23.429775106983598 L-9.908879333531381,23.6370917778797 L-9.949898429779543,23.84081997180277 L-9.983756128551871,24.040769738871298 L-10.010294443973741,24.23676831502046 L-10.029377252059664,24.428659763609875 L-10.040890689598328,24.616304486846033 L-10.04474361934673,24.799534432901538 " />
			<path d="M8.955630442186886,-4.432627481079815 L8.963898016345937,-5.129768262197647 L8.966654385477172,-5.824092961845411 L8.963898016345935,-6.51521536081954 L8.955630442186889,-7.202751021200985 " />
			<path d="M8.955630442186878,-7.202751021201257 L8.64408097894877,-7.665020451549129 L8.330515214434461,-8.125855108769835 L8.014976927038052,-8.585253275402284 L7.697510049971797,-9.043210415706106 L7.378158971124699,-9.499718966610697 L7.056968836085775,-9.954768130718845 L6.73398585433201,-10.408343671365019 L6.409257608580987,-10.860427709728253 L6.082833367308208,-11.310998523999658 L5.754764400429094,-11.760030350604556 L5.425104298145662,-12.20749318747925 L5.093909292957896,-12.653352599402389 L4.761238584839793,-13.097569525380976 L4.4271546695800925,-13.540100088090988 L4.09172367028769,-13.980895405372626 L3.755015672061739,-14.419901403780175 L3.417105059826416,-14.857058634186497 L3.078117747181394,-15.292242135139025 L2.7382415706147856,-15.725250842456097 L2.3974910714964928,-16.156106770251547 L1.7134275945503044,-17.01143644935522 L1.0261596784310094,-17.858231942447738 L0.33611597971693596,-18.696244483274764 L-0.3560516813303236,-19.524965618417248 L-1.0494397750555748,-20.34361714556979 L-1.742862472883428,-21.151141390377916 L-2.4348186466763977,-21.946192071202066 L-3.1234560896786627,-22.72712600117631 L-3.8068835553271505,-23.49238661623206 L-4.483589992892699,-24.24098425437034 L-5.151132980419401,-24.97107368524785 L-5.806171660462912,-25.6800891669633 L-6.444515037627234,-26.364904211297826 L-7.061313097375601,-27.022158805073577 L-8.201222960765536,-28.23364855976756 L-8.70599704783026,-28.77601602057973 L-8.93724283937392,-29.028478480492144 L-9.151962491626886,-29.26698406558335 L-9.348141163365074,-29.490334308059072 L-9.523819998004203,-29.697480471190453 L-9.677096046586454,-29.887523709431928 L-9.744752956880369,-29.97589098489003 L-9.806095775836965,-30.059678273065373 L-9.860878283321316,-30.1387727993631 L-9.908879333565407,-30.213089443596953 L-9.949898429803397,-30.28256412247202 L-9.983756128567267,-30.347153283223072 L-10.010294443982469,-30.406833397252893 L-10.029377252063568,-30.461600453770625 L-10.04089068959931,-30.511469420154818 L-10.044743619346733,-30.556463236607488 " />
			<path d="M-19.82102548368637,27.96297321713958 L-19.707790957458073,27.895278924655816 L-19.59457121409196,27.82375874504884 L-19.481381034520304,27.748422015337987 L-19.368235195815796,27.669278570796365 L-19.255148469262394,27.58633874366693 L-19.142135618426913,27.499613361813527 L-19.02921139723163,27.40911374730735 L-18.91639054802815,27.314851714948848 L-18.803687799672776,27.216839570725224 L-18.691117865603648,27.115090110203976 L-18.57869544191989,27.00961661686233 L-18.46643520546302,26.900432860353146 L-18.35435181190088,26.787553094707224 L-18.242459893814324,26.67099205647246 L-18.13077405878692,26.550764962789966 L-18.019308887497917,26.42688750940746 L-17.90807893181874,26.299375868630193 L-17.797098712913208,26.168246687209592 L-17.6863827193418,26.033517084170057 L-17.575945405170152,25.895204648574047 L-17.465801188082082,25.75332743722581 L-17.35596444749732,25.607903972314055 L-17.246449522694306,25.458953238993853 L-17.13727071093814,25.306494682908134 L-17.028442265614085,25.150548207649 L-16.91997839436678,24.991134172159345 L-16.811893257245405,24.828273388074933 L-16.704200964855094,24.661987117007474 L-16.596915576514764,24.49229706776883 L-16.490051098421667,24.319225393536996 L-16.38362148182288,24.142794688963907 L-16.27764062119393,23.963027987225733 L-16.1721223524249,23.77994875701587 L-16.067080451014096,23.59358089948107 L-15.858480539519366,23.21107705051258 L-15.651949814726713,22.815716178591742 L-15.44759612415215,22.40770473575133 L-15.245526178494234,21.98725577997901 L-15.045845495911195,21.554588863961346 L-14.848658346920821,21.109929920436446 L-14.654067699951803,20.653511144214928 L-14.462175167575031,20.18557087093099 L-14.273080953442909,19.706353452586832 L-14.086883799964383,19.21610912995534 L-13.90368093674299,18.715093901907803 L-13.723568029804914,18.203569391734824 L-13.54663913164347,17.68180271053017 L-13.37298663210621,17.15006631770909 L-13.202701210150192,16.6086378787337 L-13.035871786490674,16.057800120119875 L-12.87258547716792,15.497840681801318 L-12.712927548056435,14.929051966927979 L-12.55698137034025,14.351730989177113 L-12.404828376977658,13.766179217656777 L-12.256548020178034,13.172702419482826 L-12.112217729912974,12.571610500111495 L-11.971912873483417,11.963217341511019 L-11.835706716163894,11.347840638256757 L-11.703670382944393,10.725801731635464 L-11.575872821389856,10.097425441845239 L-11.452380765636718,9.463039898378877 L-11.333258701545246,8.82297636867916 L-11.218568833025913,8.177569085155511 L-11.108371049557357,7.527155070652416 L-11.002722894912928,6.872073962460709 L-10.901679537112114,6.212667834963633 L-10.805293739612548,5.549281021010285 L-10.713615833757666,4.882259932109705 L-10.62669369249436,4.211952877539547 L-10.54457270537438,3.5387098824637304 L-10.467295754852541,2.862882505154097 L-10.394903193894082,2.1848236534115033 L-10.327432824902912,1.5048874002822155 L-10.264919879981694,0.8234287991657423 L-10.207397002534137,0.14080369841086182 L-10.154894230219062,-0.5426314445034595 L-10.107438979265135,-1.2265197491053592 L-10.065056030154501,-1.9105040982881478 L-10.027767514682738,-2.594227324791971 L-9.995592904401953,-3.2773323977116617 L-9.968549000452999,-3.9594626089333884 L-9.946649924792148,-4.6402617594027475 L-9.929907112816796,-5.319374345127031 L-9.918329307394062,-5.996445742814542 L-9.911922554295378,-6.671122395054025 L-9.91069019903947,-7.343051994937497 L-9.914632885145377,-8.011883670030098 L-9.923748553796404,-8.677268165590863 L-9.93803244491523,-9.338858026948747 L-9.957477099649527,-9.996307780938764 L-9.982072364266894,-10.649274116303303 L-10.011805395456985,-11.297416062964503 L-10.046660667038111,-11.940395170074236 L-10.086619978064801,-12.57787568274848 L-10.13166246233209,-13.209524717393936 L-10.181764599271553,-13.835012435535255 L-10.236900226233441,-14.454012216052192 L-10.297040552148447,-15.066200825736669 L-10.362154172562011,-15.67125858808075 L-10.432207086033294,-16.268869550207313 L-10.50716271189027,-16.85872164785632 L-10.586981909331648,-17.440506868340513 L-10.671622997865661,-18.01392141138541 L-10.761041779075052,-18.57866584776965 L-10.855191559696882,-19.134445275682822 L-10.954023176005105,-19.680969474719177 L-11.057485019483202,-20.217953057426726 L-11.16552306377344,-20.745115618332658 L-11.278080892888688,-21.26218188036726 L-11.395099730672085,-21.76888183860982 L-11.516518471489132,-22.26495090128148 L-11.642273712136227,-22.750130027911474 L-11.77229978494894,-23.22416586460447 L-11.906528792092782,-23.686810876338573 L-12.04489064101852,-24.13782347622468 L-12.18731308106353,-24.576968151659816 L-12.333721741180122,-25.004015587308622 L-12.484040168771074,-25.418742784848707 L-12.560641094561827,-25.621418363385885 L-12.638189869612138,-25.820933179417274 L-12.716676369864512,-26.017261186116635 L-12.796090348840643,-26.210376752698348 L-12.876421438979094,-26.400254667763544 L-12.957659152988809,-26.586870142591465 L-13.039792885218217,-26.770198814375664 L-13.122811913039826,-26.950216749404564 L-13.206705398250056,-27.126900446186074 L-13.291462388484192,-27.300226838515673 L-13.377071818646204,-27.470173298487744 L-13.463522512353325,-27.636717639449692 L-13.550803183395129,-27.799838118898386 L-13.638902437206943,-27.95951344131869 L-13.727808772357438,-28.115722760963603 L-13.81751058205014,-28.26844568457568 L-13.907996155638703,-28.4176622740494 L-13.999253680155752,-28.563353049034106 L-14.09127124185507,-28.70549898947716 L-14.184036827766953,-28.844081538107055 L-14.277538327266504,-28.979082602856067 L-14.371763533654697,-29.110484559222176 L-14.466700145751965,-29.238270252569986 L-14.562335769504124,-29.362423000370267 L-14.65865791960044,-29.482926594377865 L-14.755654021103592,-29.59976530274771 L-14.85331141109133,-29.71292387208862 L-14.951617340309646,-29.82238752945464 L-15.050558974837188,-29.928141984273683 L-15.150123397760746,-30.030173430213136 L-15.250297610861566,-30.12846854698232 L-15.351068536312273,-30.223014502071468 L-15.452423018384192,-30.313798952427003 L-15.554347825164848,-30.40081004606293 L-15.656829650285399,-30.484036423608135 L-15.759855114657785,-30.563467219789366 L-15.863410768221394,-30.6390920648497 L-15.96748309169896,-30.71090108590229 L-16.072058498361542,-30.77888490821934 L-16.17712333580227,-30.843034656455945 L-16.282663887718666,-30.903341955808767 L-16.38866637570332,-30.959798933109393 L-16.4951169610427,-31.012398217852173 L-16.60200174652378,-31.061132943156462 L-16.709306778248344,-31.105996746663074 L-16.817018047454674,-31.146983771364898 L-16.925121492346417,-31.18408866637156 L-17.03360299992835,-31.21730658760795 L-17.142448407848843,-31.24663319844665 L-17.251643506248783,-31.272064670274062 L-17.36117403961667,-31.293597682990253 L-17.47102570864969,-31.311229425442384 L-17.581184172120487,-31.324957595791723 L-17.69163504874936,-31.334780401814132 " />
			<path d="M-17.69163504874945,-31.33478040181414 L-17.822826119136113,-31.34136124522218 L-17.95438321374049,-31.342459432863507 L-18.086282234325182,-31.33807476357537 L-18.218499020019827,-31.328208040528462 L-18.351009351746775,-31.312861071079762 L-18.483788956657506,-31.292036666441508 L-18.616813512578815,-31.265738641166205 L-18.750058652468127,-31.233971812447933 L-18.88349996887693,-31.196741999239908 L-19.017113018421686,-31.1540560211886 L-19.1508733262613,-31.105921697384556 L-19.284756390580334,-31.052347844930058 L-19.41873768707718,-30.9933442773241 L-19.552792673456356,-30.92892180266474 L-19.686896793924088,-30.85909222166931 L-19.821025483686363,-30.783868325512824 " />
			<path d="M-19.821025483686366,27.96297321713958 L-0.9438583563660146,29.30625660207922 " />
			<path d="M19.11313171641185,27.502418913731706 L19.21425915160603,27.441631197853354 L19.309073315750084,27.380424335219452 L19.39753222922404,27.318825425587253 L19.479596726238686,27.25686174229549 L19.555230472176422,27.194560720188942 L19.6243999796787,27.131949943471444 L19.687074623472782,27.06905713349281 L19.74322665393126,27.00591013647501 L19.792831209358418,26.942536911183062 L19.83586632699793,26.878965516546106 L19.872312952756975,26.81522409923411 L19.902154949642615,26.75134088119576 L19.925379104906526,26.687344147162953 L19.941975135895053,26.623262232127598 L19.951935694601918,26.559123508796063 L19.955256370921592,26.49495637502699 " />
			<path d="M19.955256370921592,26.494956375026977 L19.95412689850876,26.457532130377317 L19.950738651364656,26.420113521681245 L19.945092139746833,26.38270618404359 L19.93718821399918,26.345315750871812 L19.92702806442383,26.30794785302761 L19.914613221101945,26.27060811797895 L19.89994555366326,26.23330216895258 L19.883027271004547,26.19603562408721 L19.842449389902242,26.121643188878465 L19.79290402039331,26.047475623573984 L19.73442100675571,25.97357760394179 L19.66703557697005,25.899993643385695 L19.59078832149952,25.826768066132047 L19.505725168839753,25.75394498053051 L19.411897357853192,25.681568252484816 L19.309361406904728,25.6096814790296 L19.198179079817145,25.53832796206917 L19.078417348666907,25.46755068229407 L18.95014835344268,25.397392273291096 L18.813449358590894,25.327894995862444 L18.668402706474552,25.259100712569364 L18.51509576777324,25.191050862515727 L18.353620888854323,25.123786436386663 L18.18407533614692,25.057347951757286 L18.006561237552262,24.99177542868645 L17.821185520925674,24.92710836561013 L17.628059849667203,24.86338571554907 L17.427300555459773,24.800645862644924 L17.219028568195352,24.738926599039086 L17.003369343131272,24.67826510210812 L16.78045278532069,24.6186979120695 L16.55041317136265,24.560260909971138 L16.31338906851886,24.502989296078006 L16.06952325124598,24.446917568668784 L15.818962615193598,24.392079503255413 L15.561858088719807,24.338508132237962 L15.298364541977598,24.286235725007177 L15.028640693626867,24.235293768506576 L14.75284901522824,24.185712948265916 L14.47115563337627,24.137523129917366 L14.183730229630992,24.090753341205563 L13.89074593830809,24.045431754502392 L13.59237924218927,24.001585669837 L13.288809866215626,23.959241498451277 L12.980220669228052,23.918424746890718 L12.666797533819919,23.879160001640226 L12.348729254368354,23.841470914314133 L12.026207423311561,23.805380187409366 L11.699426315740697,23.770909560630283 L11.36858277237583,23.738079797793525 L11.033876080996448,23.70691067432064 L10.695507856397947,23.67742096532611 L10.008604171804905,23.62354982244762 L9.309526529738541,23.576596149459803 L8.599959069470568,23.536673061873543 L7.881611201163523,23.503876737903685 L7.156213487752014,23.478286186767292 L6.425513475864999,23.45996305834352 L5.691271485832863,23.448951494653652 L4.955256370921595,23.445278023519123 L4.219241256010328,23.448951494653652 L3.4849992659781908,23.45996305834352 L2.754299254091176,23.478286186767292 L2.028901540679668,23.503876737903685 L1.310553672372623,23.536673061873543 L0.6009862121046483,23.576596149459803 L-0.09809142996171438,23.62354982244762 L-0.784995114554758,23.67742096532611 L-1.1233633391532578,23.706910674320635 L-1.4580700305326397,23.738079797793525 L-1.7889135738975064,23.770909560630283 L-2.115694681468371,23.805380187409362 L-2.438216512525166,23.841470914314133 L-2.7562847919767304,23.879160001640223 L-3.0697079273848615,23.918424746890718 L-3.378297124372436,23.959241498451277 L-3.6818665003460804,24.001585669837 L-3.9802331964649014,24.045431754502392 L-4.273217487787802,24.090753341205563 L-4.560642891533082,24.137523129917366 L-4.842336273385049,24.185712948265916 L-5.118127951783672,24.235293768506576 L-5.38785180013441,24.286235725007174 L-5.651345346876617,24.338508132237962 L-5.908449873350408,24.39207950325541 L-6.159010509402799,24.446917568668788 L-6.402876326675679,24.502989296078006 L-6.639900429519466,24.560260909971138 L-6.869940043477504,24.618697912069496 L-7.092856601288084,24.678265102108117 L-7.3085158263521635,24.738926599039083 L-7.516787813616586,24.800645862644924 L-7.7175471078240125,24.863385715549068 L-7.910672779082487,24.927108365610128 L-8.096048495709077,24.99177542868645 L-8.27356259430373,25.057347951757286 L-8.443108147011134,25.12378643638666 L-8.604583025930054,25.191050862515727 L-8.757889964631364,25.25910071256936 L-8.902936616747706,25.32789499586244 L-9.039635611599486,25.397392273291093 L-9.167904606823715,25.467550682294068 L-9.287666337973953,25.538327962069168 L-9.398848665061536,25.609681479029597 L-9.501384616010002,25.681568252484812 L-9.595212426996564,25.753944980530505 L-9.680275579656335,25.826768066132047 L-9.756522835126862,25.89999364338569 L-9.823908264912525,25.97357760394179 L-9.882391278550124,26.047475623573984 L-9.931936648059057,26.12164318887847 L-9.972514529161362,26.19603562408721 L-9.989432811820077,26.23330216895258 L-10.00410047925876,26.27060811797895 L-10.016515322580645,26.30794785302761 L-10.026675472155993,26.345315750871812 L-10.034579397903649,26.382706184043588 L-10.040225909521471,26.420113521681245 L-10.043614156665575,26.457532130377317 L-10.044743629078408,26.49495637502695 " />
			<path d="M-10.044743629078408,26.494956375026977 L-10.04114228818365,26.561779910988708 L-10.03033999478688,26.628571359706065 L-10.012341935920224,26.695298649342295 L-9.987156753869742,26.761929738868464 L-9.95479654202557,26.828432633448898 L-9.915276839074949,26.894775399804413 L-9.86861662154086,26.960926181546007 L-9.814838294669917,27.026853214471608 L-9.753967681673823,27.092524841818584 L-9.68603401132963,27.157909529464643 L-9.61106990394469,27.22297588106985 L-9.529111355693077,27.287692653152487 L-9.440197721330993,27.352028770091497 L-9.34437169529944,27.415953339048365 L-9.24167929122326,27.479435664801166 L-9.132169819816374,27.542445264483792 L-9.015895865203811,27.604951882223165 L-8.89291325967194,27.666925503667464 L-8.763281056858977,27.72833637039838 L-8.627061503398693,27.789154994220482 L-8.484320009030894,27.84935217132082 L-8.335125115193051,27.908898996291974 L-8.17954846210816,27.96776687601182 L-8.017664754384624,28.025927543373342 L-7.849551725144687,28.0833530708579 L-7.675290098698635,28.140015883945416 L-7.4949635517826945,28.195888774355097 L-7.30865867337924,28.250944913110253 L-7.116464923138604,28.305157863421023 L-6.918474588422448,28.358501593378737 L-6.714782739989332,28.41095048845591 L-6.505487186343743,28.462479363805773 L-6.29068842677054,28.51306347635552 L-6.070489603077327,28.5626785366874 L-5.8449964500679314,28.611300720701976 L-5.61431724477081,28.658906681057957 L-5.137846183400587,28.75097899225077 L-4.641991474289119,28.838718646812655 L-4.127705398755312,28.92195714209067 L-3.595975635272925,29.000534619838806 L-3.047823362649307,29.074300173223335 L-2.484301298867252,29.143112136637022 L-1.906491679356348,29.20683835776574 L-1.3155041785765418,29.265356451384974 L-0.7124737789054372,29.31855403439873 L-0.09855859092217845,29.366328941669554 L0.525062370726074,29.40858942222509 L1.1571914516035706,29.445254315464425 L1.796614657562845,29.476253207025742 L2.4421039862017433,29.501526564016046 L3.0924197852230924,29.52102584934315 L3.7463131331678117,29.53471361493041 L4.402528237949308,29.542563573635196 L5.059804848582799,29.54456064973292 L5.716880675477895,29.54070100786974 L6.372493814646275,29.530992060428318 L7.02538517116883,29.51545245329242 L7.674300877268038,29.49411203003781 L8.317994700341675,29.467011774618122 L8.955230436333299,29.43420373265578 L9.584784283843087,29.395750911489223 L10.205447194419525,29.351727159168256 L10.816027194518309,29.302217022630025 L11.415351674669157,29.247315585327918 L12.002269641454195,29.187128284625267 L12.575653927973057,29.121770709304514 L13.134403358549543,29.051368377580737 L13.677444863522508,28.976056496045857 L14.20373554005958,28.895979700006468 L14.712264655035975,28.811291775713958 L15.20205558613187,28.722155365020377 L15.439628828395305,28.6759721477768 L15.672167697420482,28.628741653027287 L15.899560532975581,28.58048655985347 L16.12169814584488,28.531230039327404 L16.338473870259126,28.480995743385314 L16.549783615114134,28.429807793470445 L16.755525913953157,28.37769076895044 L16.95560197368892,28.32466969531486 L17.14991572204195,28.270770032158477 L17.33837385367248,28.21601766095611 L17.52088587498364,28.160438872634884 L17.697364147574625,28.10406035494991 L17.867723930322754,28.046909179669363 L18.031883420074365,27.989012789575202 L18.189763790924964,27.930398985285734 L18.34128923206974,27.871095911906348 L18.486386984206334,27.811132045514825 L18.624987374472276,27.75053617948772 L18.757023849900428,27.68933741067443 L18.882433009376314,27.627565125425456 L19.001154634082,27.56524898548174 L19.11313171641183,27.50241891373172 " />
			<path d="M19.955256370921592,-32.25188516762543 L19.95412689850876,-32.28930941227509 L19.950738651364656,-32.32672802097116 L19.945092139746833,-32.36413535860881 L19.93718821399918,-32.40152579178059 L19.92702806442383,-32.4388936896248 L19.914613221101945,-32.47623342467346 L19.89994555366326,-32.51353937369983 L19.883027271004547,-32.5508059185652 L19.842449389902242,-32.62519835377394 L19.79290402039331,-32.699365919078424 L19.73442100675571,-32.77326393871061 L19.66703557697005,-32.84684789926671 L19.59078832149952,-32.92007347652036 L19.505725168839753,-32.9928965621219 L19.411897357853192,-33.065273290167596 L19.309361406904728,-33.13716006362281 L19.198179079817145,-33.20851358058324 L19.078417348666907,-33.27929086035834 L18.95014835344268,-33.34944926936131 L18.813449358590894,-33.41894654678997 L18.668402706474552,-33.48774083008305 L18.51509576777324,-33.55579068013668 L18.353620888854323,-33.623055106265745 L18.18407533614692,-33.68949359089512 L18.006561237552262,-33.75506611396596 L17.821185520925674,-33.81973317704228 L17.628059849667203,-33.88345582710334 L17.427300555459773,-33.946195680007484 L17.219028568195352,-34.00791494361332 L17.003369343131272,-34.06857644054429 L16.78045278532069,-34.12814363058291 L16.55041317136265,-34.18658063268127 L16.31338906851886,-34.243852246574406 L16.06952325124598,-34.299923973983624 L15.818962615193598,-34.354762039396995 L15.561858088719807,-34.40833341041444 L15.298364541977598,-34.46060581764523 L15.028640693626867,-34.51154777414583 L14.75284901522824,-34.56112859438649 L14.47115563337627,-34.60931841273504 L14.183730229630992,-34.65608820144685 L13.89074593830809,-34.701409788150016 L13.59237924218927,-34.745255872815406 L13.288809866215626,-34.78760004420113 L12.980220669228052,-34.82841679576169 L12.666797533819919,-34.86768154101218 L12.348729254368354,-34.905370628338275 L12.026207423311561,-34.94146135524304 L11.699426315740697,-34.975931982022125 L11.36858277237583,-35.00876174485888 L11.033876080996448,-35.03993086833177 L10.695507856397947,-35.0694205773263 L10.008604171804905,-35.12329172020479 L9.309526529738541,-35.1702453931926 L8.599959069470568,-35.21016848077886 L7.881611201163523,-35.24296480474872 L7.156213487752014,-35.26855535588511 L6.425513475864999,-35.28687848430889 L5.691271485832863,-35.297890047998756 L4.955256370921595,-35.30156351913328 L4.219241256010328,-35.297890047998756 L3.4849992659781908,-35.28687848430889 L2.754299254091176,-35.26855535588511 L2.028901540679668,-35.24296480474872 L1.310553672372623,-35.21016848077886 L0.6009862121046483,-35.1702453931926 L-0.09809142996171438,-35.12329172020479 L-0.784995114554758,-35.0694205773263 L-1.1233633391532578,-35.03993086833177 L-1.4580700305326397,-35.00876174485888 L-1.7889135738975064,-34.975931982022125 L-2.115694681468371,-34.94146135524304 L-2.438216512525166,-34.905370628338275 L-2.7562847919767304,-34.86768154101218 L-3.0697079273848615,-34.82841679576169 L-3.378297124372436,-34.787600044201135 L-3.6818665003460804,-34.74525587281541 L-3.9802331964649014,-34.701409788150016 L-4.273217487787802,-34.65608820144685 L-4.560642891533082,-34.60931841273504 L-4.842336273385049,-34.56112859438649 L-5.118127951783672,-34.51154777414583 L-5.38785180013441,-34.46060581764523 L-5.651345346876617,-34.40833341041444 L-5.908449873350408,-34.354762039396995 L-6.159010509402799,-34.299923973983624 L-6.402876326675679,-34.243852246574406 L-6.639900429519466,-34.18658063268127 L-6.869940043477504,-34.12814363058291 L-7.092856601288084,-34.06857644054429 L-7.3085158263521635,-34.00791494361332 L-7.516787813616586,-33.946195680007484 L-7.7175471078240125,-33.88345582710334 L-7.910672779082487,-33.81973317704228 L-8.096048495709077,-33.75506611396596 L-8.27356259430373,-33.689493590895125 L-8.443108147011134,-33.623055106265745 L-8.604583025930054,-33.55579068013668 L-8.757889964631364,-33.48774083008305 L-8.902936616747706,-33.41894654678997 L-9.039635611599486,-33.349449269361315 L-9.167904606823715,-33.279290860358344 L-9.287666337973953,-33.20851358058324 L-9.398848665061536,-33.137160063622815 L-9.501384616010002,-33.065273290167596 L-9.595212426996564,-32.9928965621219 L-9.680275579656335,-32.920073476520365 L-9.756522835126862,-32.84684789926671 L-9.823908264912525,-32.77326393871062 L-9.882391278550124,-32.699365919078424 L-9.931936648059057,-32.62519835377394 L-9.972514529161362,-32.5508059185652 L-9.989432811820077,-32.51353937369983 L-10.00410047925876,-32.47623342467346 L-10.016515322580645,-32.4388936896248 L-10.026675472155993,-32.4015257917806 L-10.034579397903649,-32.36413535860882 L-10.040225909521471,-32.32672802097117 L-10.043614156665575,-32.28930941227509 L-10.044743629078408,-32.25188516762546 " />
			<path d="M-19.821025483686366,27.96297321713958 L-19.821025483686366,18.913741952659606 " />
			<path d="M-19.821025483686366,18.913741952659606 L-17.475537468116812,19.080644913238356 " />
			<path d="M-17.475537468116812,13.680370825137341 L-19.821025483686366,13.51346786455859 " />
			<path d="M-19.821025483686366,13.513467864558592 L-19.821025483686366,-16.33436297293183 " />
			<path d="M-19.821025483686366,-16.334362972931835 L-17.475537468116812,-16.167460012353086 " />
			<path d="M-17.475537468116812,-21.5677341004541 L-19.821025483686366,-21.73463706103285 " />
			<path d="M-19.821025483686366,-21.734637061032853 L-19.821025483686366,-30.783868325512824 " />
			<path d="M-17.475537468116812,21.564840203889702 L-19.821025483686366,18.913741952659606 " />
			<path d="M-17.475537468116812,8.137423318165228 L-17.475537468116812,21.564840203889702 " />
			<path d="M-19.821025483686366,13.513467864558592 L-17.475537468116812,8.13742331816523 " />
			<path d="M-17.475537468116812,-13.683264721701738 L-19.821025483686366,-16.33436297293183 " />
			<path d="M-17.475537468116812,-27.110681607426216 L-17.475537468116812,-13.68326472170174 " />
			<path d="M-19.821025483686366,-21.734637061032853 L-17.475537468116812,-27.110681607426212 " />
			<path d="M9.67454815275168,26.830777221261886 L9.739862019197757,26.7901123617578 L9.796703156027291,26.748924830783146 L9.844970907173963,26.707287564508466 L9.884579798591481,26.66527429550965 L9.915459689613705,26.62295942220002 L9.937555897161932,26.580417877083235 L9.945297282249904,26.559085632405633 L9.950829292579412,26.537724994060515 L9.954149478815033,26.51634541961667 L9.955256370921592,26.49495637502698 " />
			<path d="M9.955256370921592,26.494956375026977 L9.953750464402612,26.470008757245065 L9.949233651947452,26.445076166975255 L9.941708654315043,26.420173622677634 L9.931180004282574,26.39531612471372 L9.91765404391514,26.370518646310806 L9.901138920745495,26.345796124542645 L9.881644582866297,26.321163451331913 L9.859182772937743,26.29663546447988 L9.833767021114234,26.272226938728664 L9.80541263689431,26.247952576861486 L9.739958049582635,26.19986474302785 L9.662976696836694,26.152487810782674 L9.574654033478023,26.105935915305466 L9.475202836538806,26.060321204189894 L9.364862692663362,26.015753567270412 L9.243899420922947,25.972340371888027 L9.112604432434313,25.930186204232957 L8.971294028324811,25.889392617387355 L8.82030863773527,25.850057886675028 L8.66001199769638,25.812276772907577 L8.490790276854323,25.776140294097303 L8.313051145156676,25.741735506186842 L8.12722279173981,25.709145293323772 L7.9337528933837485,25.678448168185447 L7.7331075360195936,25.649718082835076 L7.525770091887692,25.623024250564725 L7.312240055051571,25.598430979154436 L7.093031838072994,25.575997515949158 L6.8686735327470325,25.555777905126686 L6.639705637882685,25.537820857500524 L6.4066797571938965,25.522169633171252 L6.170157270437905,25.508861937309163 L5.930707981002223,25.49792982931921 L5.688908743198387,25.48939964560708 L5.445342072569382,25.48329193613249 L5.200594742558669,25.479621414902535 L4.95525637092158,25.478396924524358 L4.709917999284491,25.479621414902535 L4.465170669273778,25.48329193613249 L4.221603998644773,25.489399645607083 L3.979804760840937,25.49792982931921 L3.7403554714052554,25.508861937309167 L3.503832984649264,25.522169633171252 L3.2708071039604762,25.537820857500524 L3.0418392090961284,25.55577790512669 L2.817480903770168,25.575997515949158 L2.5982726867915904,25.59843097915444 L2.3847426499554714,25.623024250564725 L2.177405205823569,25.649718082835076 L1.9767598484594147,25.678448168185447 L1.7832899501033546,25.709145293323772 L1.5974615966864905,25.741735506186842 L1.4197224649888422,25.776140294097306 L1.2505007441467821,25.81227677290758 L1.0902041041078938,25.85005788667503 L0.939218713518355,25.889392617387358 L0.7979083094088537,25.93018620423296 L0.6666133209202201,25.972340371888027 L0.5456500491798062,26.015753567270416 L0.435309905304365,26.060321204189894 L0.33585870836514875,26.105935915305466 L0.24753604500647874,26.152487810782674 L0.17055469226053965,26.199864743027852 L0.10510010494886401,26.247952576861486 L0.07674572072894037,26.272226938728668 L0.0513299689054314,26.296635464479884 L0.028868158976877112,26.321163451331916 L0.009373821097677926,26.345796124542648 L-0.007141302071966393,26.37051864631081 L-0.020667262439400425,26.395316124713723 L-0.03119591247186726,26.420173622677634 L-0.038720910104277806,26.445076166975255 L-0.0432377225594367,26.47000875724507 L-0.04474362907841556,26.49495637502697 " />
			<path d="M-0.04474362907841556,26.494956375026977 L-0.04354318211349639,26.51723088701422 L-0.0399424176479064,26.539494703253343 L-0.03394306469235442,26.561737133132084 L-0.025548004008859593,26.583947496307474 L-0.01476126672746858,26.606115127834286 L-0.0015880324105941312,26.628229383286126 L0.031891482391083414,26.672255321508523 L0.07482624350451239,26.715940759839533 L0.12713379538336333,26.759201801068816 L0.18871368218124385,26.801955363034107 L0.25944764067559944,26.84411933817925 L0.3391998273904111,26.885612751240476 L0.4278170794814926,26.926355914758147 L0.5251292088833743,26.96627058211531 L0.6309493291528501,27.005280097809102 L0.7450742143815141,27.043309544666457 L0.8672846894879793,27.080285887721406 L0.9973460511402439,27.116138114477565 L1.1350085184998129,27.150797371286576 L1.280007712921952,27.184197095580455 L1.432065165690791,27.216273143703972 L1.5908888528141993,27.246963914101574 L1.7561737558513553,27.276210465622206 L1.927602447695958,27.303956630714875 L2.1048457021900875,27.330149123297588 L2.2875631263979606,27.35473764109243 L2.4754038143253125,27.377674962230326 L2.6680070208289473,27.3989170359399 L2.8650028544222166,27.41842306714631 L3.0660129876459186,27.436155594817563 L3.270651383640338,27.45208056390784 L3.47852503752309,27.466167390759683 L3.6892347311489218,27.47838902183946 L4.117538909348313,27.497146438023336 L4.552275291670337,27.508208788328123 L4.990105863475333,27.51149113326229 L5.427668852163158,27.50696827016076 L5.861604539703746,27.494674926697257 L6.076169147394958,27.485641508224024 L6.2885810593921665,27.474705494236577 L6.498432341895429,27.46188788718106 L6.7053199787542415,27.44721330307407 L6.908846645453837,27.430709924227994 L7.108621472170785,27.41240944512729 L7.304260794432466,27.39234701155974 L7.495388889938752,27.37056115311949 L7.6816387001309145,27.347093709211563 L7.862652535121903,27.321989748699934 L8.03808276063426,27.295297483353473 L8.20759246562639,27.267068175255968 L8.370856109325024,27.237356038358108 L8.527560146421227,27.206218134360412 L8.67740362922936,27.173714263127117 L8.820098785652444,27.139906847841466 L8.955371571844038,27.104860815122937 L9.082962198505225,27.068643470336685 L9.20262562980594,27.03132436833462 L9.31413205397252,26.99297517987638 L9.417267324637645,26.953669553986767 L9.511833372105155,26.91348297651389 L9.597648583739835,26.8724926251598 L9.674548152751672,26.83077722126189 " />
			<path d="M9.67454815275168,26.830777221261883 L9.67454815275168,26.159135528792067 " />
			<path d="M-17.69163504874945,-31.334780401814136 L-10.04474362907841,-30.790634020039757 " />
			<path d="M-10.04474362907841,26.494956375026973 L-10.04474362907841,24.799534438455307 " />
			<path d="M-10.04474362907841,-30.556463231053776 L-10.04474362907841,-32.25188516762543 " />
			<path d="M19.955256370921596,26.494956375026977 L19.955256370921596,-32.25188516762543 " />

       </g>
    </g>
    <g transform="translate(20,210.0)" stroke="rgb(0,0,255)">
        <line x1="30" y1="-30" x2="75" y2="-33" stroke-width="3" stroke="#000000" />
         <text x="80" y="-30" style="stroke:#000000">X </text>

        <line x1="30" y1="-30" x2="30" y2="-75" stroke-width="3" stroke="#000000" />
         <text x="25" y="-85" style="stroke:#000000">Y </text>

        <line x1="30" y1="-30" x2="58" y2="-15" stroke-width="3" stroke="#000000" />
         <text x="65" y="-5" style="stroke:#000000">Z </text>
        <!--
            <line x1="0" y1="0" x2="2.775798811182033" y2="0" stroke-width="3" />
            <text x="0" y="20" style="stroke:#000000">1  mm </text>
        -->
    </g>
</svg>
