<?xml version="1.0" encoding="UTF-8" standalone="no"?>
<svg
   xmlns:svg="http://www.w3.org/2000/svg"
   xmlns="http://www.w3.org/2000/svg"
   width="800.0"
   height="240.0"

>
    <g transform="scale(2.775798811182033, -2.775798811182033)   translate(99.4232237186902,-36.7497678649424)" stroke-width="0.36025665692037845"  fill="none">
       <!-- hidden lines -->
       <g  stroke="rgb(160,160,160)" fill="none" stroke-dasharray="0.36025665692037845,0.36025665692037845" >
			<path d="M-0.9328614970100537,29.29985054122131 L-0.9328344130757757,29.299834719222492 " />
			<path d="M-10.044743619346727,24.799534432901588 L-10.041671634812895,24.958998916454615 L-10.03244155274555,25.1147845842122 L-10.017043581824346,25.266839049745197 L-9.995483391862948,25.415118751219136 L-9.967782401940603,25.559588639830903 L-9.933978068533749,25.700221868245396 L-9.894124173647588,25.83699947903222 L-9.848291112947694,25.96991009310232 L-9.79656116623238,26.098961293578945 L-9.739015393872112,26.224199405468468 L-9.675747267349033,26.345666388843636 L-9.606860749781582,26.463406802778465 L-9.53247055974003,26.57746770188436 L-9.452704040839643,26.687896500428756 L-9.367677882575164,26.79477003179998 L-9.27750813776557,26.898172139469533 L-9.182314707292726,26.998186420634916 L-9.082221396815735,27.09489612942901 L-8.977355973485274,27.188384080129435 L-8.867850222657943,27.27873255036791 L-8.753840004610586,27.366023184339625 L-8.635480571836938,27.45032640953464 L-8.512926527502254,27.531717730498226 L-8.386288679040703,27.610301906284654 L-8.255674196057143,27.68618093054299 L-8.12118752631971,27.759453462636966 L-7.982930441122051,27.830214898199138 L-7.841002079725388,27.8985574375424 L-7.6954989929279085,27.964570152010992 L-7.5465151858096355,28.02833904834755 L-7.394142159701655,28.089947131147376 L-7.2384689534293045,28.14947446346544 L-7.079582183879697,28.206998225636333 L-6.917566085944657,28.26259277236166 L-6.752502551890883,28.316329688114067 L-6.5844711702098575,28.36827784090147 L-6.413549264000778,28.41850343442961 L-6.239811928940547,28.46707005869553 L-6.063332070895519,28.514038739039105 L-5.8841804432304645,28.559467983674196 L-5.518134352176099,28.645929887712402 L-5.142198036755283,28.726875205719466 L-4.75686379529262,28.80268588920029 L-4.362593018031595,28.873707663886645 L-3.959817368520177,28.940251189629432 L-3.5489399797037127,29.00259311933502 L-3.1303366728058366,29.060977052320947 L-2.7043572072651134,29.11561437605847 L-2.271326570182098,29.1666849888617 L-1.8315463139184258,29.214337894675154 L-1.3852959506765563,29.258691659703885 L-0.9328344130757884,29.29983471922246 " />
			<path d="M-10.04474361934673,-30.556463236607495 L-10.042587098696284,-30.58691179128306 L-10.036108506218905,-30.614697617946817 L-10.02529988906409,-30.639855986388188 L-10.01016087098518,-30.662427060091243 L-9.990698771373436,-30.682455716503505 L-9.966928724292119,-30.699991367304712 L-9.93887379751055,-30.715087778675652 L-9.906565111538201,-30.72780289156693 L-9.870041958658762,-30.738198641967777 L-9.829351760201106,-30.746340804263284 L-9.784542001632804,-30.752299529957636 L-9.735661992518772,-30.756147151139036 L-9.682767685130262,-30.757957090905474 L-9.625920092659312,-30.757804153357085 L-9.500636644809777,-30.751915823914466 " />
			<path d="M-9.50063664480976,-30.751915823914462 L-9.36871449342022,-30.740003026626532 L-9.223932908126619,-30.722448253695372 L-9.066770058147483,-30.699764194047727 L-8.897728712344582,-30.672454959906354 L-8.526199637712908,-30.60593659945564 L-8.113632179398609,-30.52665859304923 L-7.178551331866993,-30.342541357512744 L-6.661874468745632,-30.243129264217426 L-6.115927942622342,-30.14188416570022 L-5.543044074973166,-30.04073755022878 L-4.945342576214676,-29.941354255116774 L-4.324742201975626,-29.845154891393715 L-3.682972388529045,-29.753336367453258 L-3.3546405226169487,-29.709387416118034 L-3.0215850587203947,-29.666890548913624 L-2.6839742475812454,-29.6259404626852 L-2.3419667970263234,-29.586621028089475 L-1.9957122871793445,-29.54900570324682 L-1.64535159967724,-29.51315791264032 L-1.291017362628005,-29.47913138943312 L-0.9328344130757893,-29.446970479126193 " />
			<path d="M-0.9328344130757402,-29.44697047912619 L-0.9438583563660174,-29.440584940573185 " />
			<path d="M-19.821025483686366,-30.783868325512824 L-0.9438583563660146,-29.440584940573185 " />
			<path d="M-0.9438583563660162,-29.440584940573185 L-0.9438583563660174,29.30625660207922 " />
			<path d="M-0.9328344130757342,29.29983471922247 L-0.9328344130757342,-29.446970479126197 " />
			<path d="M19.11313171641185,-31.244422628920702 L19.214259151606033,-31.305210344799054 L19.309073315750084,-31.366417207432956 L19.39753222922404,-31.428016117065155 L19.479596726238686,-31.489979800356917 L19.555230472176422,-31.552280822463466 L19.6243999796787,-31.614891599180964 L19.687074623472782,-31.6777844091596 L19.74322665393126,-31.7409314061774 L19.792831209358418,-31.804304631469346 L19.83586632699793,-31.867876026106302 L19.872312952756975,-31.931617443418297 L19.902154949642615,-31.99550066145665 L19.925379104906526,-32.05949739548946 L19.941975135895053,-32.12357931052481 L19.951935694601918,-32.18771803385635 L19.955256370921592,-32.25188516762542 " />
			<path d="M-10.044743629078408,-32.25188516762543 L-10.04114228818365,-32.1850616316637 L-10.03033999478688,-32.11827018294634 L-10.012341935920224,-32.05154289331011 L-9.987156753869742,-31.984911803783945 L-9.95479654202557,-31.91840890920351 L-9.915276839074949,-31.852066142847995 L-9.86861662154086,-31.7859153611064 L-9.814838294669917,-31.7199883281808 L-9.753967681673823,-31.654316700833824 L-9.68603401132963,-31.588932013187765 L-9.61106990394469,-31.52386566158256 L-9.529111355693077,-31.45914888949992 L-9.440197721330993,-31.39481277256091 L-9.34437169529944,-31.330888203604044 L-9.24167929122326,-31.267405877851242 L-9.132169819816374,-31.204396278168616 L-9.015895865203811,-31.141889660429243 L-8.89291325967194,-31.079916038984944 L-8.763281056858977,-31.018505172254027 L-8.627061503398693,-30.957686548431926 L-8.484320009030894,-30.897489371331588 L-8.335125115193051,-30.837942546360434 L-8.17954846210816,-30.77907466664059 L-8.017664754384624,-30.720913999279063 L-7.849551725144689,-30.66348847179451 L-7.675290098698635,-30.606825658706992 L-7.494963551782693,-30.55095276829731 L-7.30865867337924,-30.495896629542155 L-7.116464923138604,-30.441683679231385 L-6.918474588422448,-30.38833994927367 L-6.714782739989332,-30.3358910541965 L-6.505487186343743,-30.284362178846635 L-6.29068842677054,-30.233778066296885 L-6.070489603077325,-30.184163005965008 L-5.8449964500679314,-30.135540821950432 L-5.61431724477081,-30.08793486159445 L-5.137846183400587,-29.99586255040164 L-4.641991474289121,-29.908122895839753 L-4.127705398755312,-29.824884400561743 L-3.595975635272927,-29.746306922813602 L-3.047823362649307,-29.672541369429073 L-2.484301298867253,-29.603729406015386 L-1.906491679356348,-29.540003184886668 L-1.3155041785765418,-29.481485091267434 L-0.7124737789054372,-29.42828750825368 L-0.09855859092217845,-29.380512600982854 L0.525062370726074,-29.338252120427317 L1.1571914516035706,-29.301587227187984 L1.796614657562845,-29.270588335626666 L2.4421039862017433,-29.24531497863636 L3.0924197852230924,-29.225815693309258 L3.7463131331678117,-29.212127927721998 L4.402528237949308,-29.204277969017213 L5.059804848582799,-29.20228089291949 L5.716880675477895,-29.20614053478267 L6.372493814646275,-29.21584948222409 L7.02538517116883,-29.23138908935999 L7.674300877268038,-29.252729512614597 L8.317994700341675,-29.279829768034286 L8.955230436333299,-29.31263780999663 L9.584784283843087,-29.351090631163185 L10.205447194419525,-29.395114383484152 L10.81602719451831,-29.444624520022384 L11.415351674669157,-29.499525957324487 L12.002269641454195,-29.55971325802714 L12.575653927973057,-29.625070833347895 L13.134403358549541,-29.695473165071675 L13.677444863522508,-29.77078504660655 L14.20373554005958,-29.85086184264594 L14.712264655035973,-29.93554976693845 L15.20205558613187,-30.02468617763203 L15.439628828395303,-30.070869394875608 L15.672167697420482,-30.11809988962512 L15.899560532975581,-30.16635498279894 L16.121698145844878,-30.215611503325004 L16.338473870259126,-30.265845799267094 L16.549783615114134,-30.317033749181963 L16.755525913953157,-30.369150773701968 L16.95560197368892,-30.422171847337548 L17.14991572204195,-30.47607151049393 L17.33837385367248,-30.5308238816963 L17.52088587498364,-30.586402670017524 L17.697364147574625,-30.642781187702496 L17.867723930322754,-30.699932362983045 L18.031883420074365,-30.757828753077206 L18.189763790924964,-30.816442557366674 L18.34128923206974,-30.87574563074606 L18.486386984206334,-30.935709497137584 L18.624987374472276,-30.996305363164687 L18.757023849900428,-31.05750413197798 L18.882433009376314,-31.119276417226953 L19.001154634082,-31.181592557170667 L19.11313171641183,-31.244422628920688 " />
			<path d="M8.955630442186884,-4.43262748107983 L8.955630442186884,-7.202751021201259 " />
			<path d="M-19.821025483686366,21.110596597472114 L-19.821025483686366,18.661389972886283 " />
			<path d="M-19.821025483686366,-21.482285081259523 L-19.821025483686366,-26.947162905034848 " />
			<path d="M-19.821025483686366,-21.482285081259526 L-27.371892334614508,-22.01959843523538 " />
			<path d="M-19.821025483686366,-16.586714952705158 L-27.371892334614508,-17.124028306681012 " />
			<path d="M-19.821025483686366,13.765819844331917 L-19.821025483686366,8.300942020556594 " />
			<path d="M-19.821025483686366,-14.13750832811932 L-19.821025483686366,-16.586714952705155 " />
			<path d="M-19.821025483686366,13.765819844331915 L-27.371892334614508,13.22850649035606 " />
			<path d="M-19.821025483686366,18.661389972886283 L-27.371892334614508,18.12407661891043 " />
			<path d="M-17.508572510589623,21.27514881212722 L-19.821025483686366,18.661389972886283 " />
			<path d="M-19.821025483686366,13.765819844331915 L-17.508572510589623,8.465494235211699 " />
			<path d="M-17.508572510589623,-13.97295611346422 L-19.821025483686366,-16.586714952705158 " />
			<path d="M-19.821025483686366,-21.482285081259526 L-17.508572510589623,-26.78261069037974 " />
			<path d="M9.67454815275168,-31.91606432139052 L9.597648583739835,-31.874348917492604 L9.511833372105155,-31.833358566138518 L9.417267324637644,-31.79317198866564 L9.314132053972518,-31.753866362776023 L9.20262562980594,-31.71551717431779 L9.082962198505223,-31.678198072315723 L8.955371571844037,-31.64198072752947 L8.82009878565244,-31.606934694810942 L8.677403629229358,-31.57312727952529 L8.527560146421225,-31.540623408291996 L8.37085610932502,-31.5094855042943 L8.20759246562639,-31.47977336739644 L8.038082760634257,-31.451544059298936 L7.862652535121901,-31.424851793952474 L7.681638700130913,-31.399747833440845 L7.49538888993875,-31.37628038953292 L7.304260794432462,-31.35449453109267 L7.108621472170784,-31.334432097525116 L6.908846645453835,-31.316131618424414 L6.70531997875424,-31.29962823957834 L6.498432341895427,-31.284953655471348 L6.288581059392164,-31.27213604841583 L6.076169147394956,-31.261200034428384 L5.861604539703744,-31.252166615955154 L5.427668852163156,-31.23987327249165 L4.990105863475331,-31.23535040939012 L4.552275291670335,-31.238632754324286 L4.117538909348312,-31.249695104629076 L3.6892347311489213,-31.26845252081295 L3.47852503752309,-31.280674151892725 L3.2706513836403395,-31.294760978744574 L3.0660129876459195,-31.310685947834845 L2.8650028544222192,-31.328418475506098 L2.66800702082895,-31.34792450671251 L2.4754038143253148,-31.369166580422082 L2.287563126397962,-31.392103901559977 L2.10484570219009,-31.41669241935482 L1.927602447695962,-31.442884911937533 L1.756173755851358,-31.470631077030205 L1.5908888528142011,-31.499877628550834 L1.4320651656907941,-31.530568398948436 L1.2800077129219556,-31.562644447071957 L1.135008518499816,-31.596044171365833 L0.9973460511402465,-31.630703428174844 L0.8672846894879838,-31.666555654931006 L0.7450742143815186,-31.70353199798595 L0.6309493291528545,-31.74156144484331 L0.5251292088833788,-31.780570960537098 L0.42781707948149794,-31.820485627894264 L0.33919982739041643,-31.861228791411936 L0.2594476406756039,-31.90272220447316 L0.1887136821812483,-31.9448861796183 L0.12713379538336955,-31.987639741583596 L0.07482624350451861,-32.03090078281288 L0.03189148239108963,-32.07458622114389 L-0.001588032410587914,-32.118612159366286 L-0.014761266727461475,-32.140726414818126 L-0.025548004008852487,-32.16289404634494 L-0.033943064692346425,-32.18510440952033 L-0.03994241764789841,-32.207346839399065 L-0.0435431821134884,-32.22961065563819 L-0.044743629078407565,-32.251885167625424 " />
			<path d="M-0.044743629078407565,-32.25188516762543 L-0.043237722559428704,-32.27683278540734 L-0.03872091010426981,-32.30176537567715 L-0.031195912471858378,-32.326667919974774 L-0.02066726243939243,-32.35152541793869 L-0.0071413020719575115,-32.3763228963416 L0.009373821097687696,-32.40104541810976 L0.028868158976885994,-32.42567809132049 L0.05132996890544028,-32.45020607817253 L0.07674572072894925,-32.47461460392374 L0.1051001049488729,-32.49888896579092 L0.17055469226054765,-32.54697679962456 L0.24753604500648763,-32.59435373186973 L0.3358587083651585,-32.640905627346946 L0.4353099053043765,-32.686520338462515 L0.5456500491798169,-32.731087975381996 L0.6666133209202316,-32.77450117076438 L0.7979083094088653,-32.81665533841945 L0.9392187135183665,-32.857448925265054 L1.0902041041079071,-32.89678365597738 L1.2505007441467972,-32.93456476974483 L1.4197224649888538,-32.9707012485551 L1.5974615966865007,-33.00510603646556 L1.783289950103366,-33.03769624932863 L1.9767598484594262,-33.06839337446696 L2.1774052058235815,-33.09712345981733 L2.384742649955483,-33.12381729208768 L2.5982726867916033,-33.14841056349797 L2.8174809037701802,-33.17084402670325 L3.041839209096141,-33.19106363752572 L3.2708071039604887,-33.209020685151884 L3.503832984649276,-33.22467190948115 L3.740355471405268,-33.23797960534324 L3.979804760840949,-33.24891171333319 L4.2216039986447855,-33.257441897045325 L4.46517066927379,-33.263549606519916 L4.709917999284502,-33.26722012774987 L4.9552563709215915,-33.26844461812805 L5.200594742558681,-33.26722012774987 L5.445342072569393,-33.263549606519916 L5.688908743198398,-33.257441897045325 L5.930707981002234,-33.24891171333319 L6.170157270437915,-33.23797960534324 L6.406679757193907,-33.22467190948115 L6.639705637882694,-33.209020685151884 L6.868673532747042,-33.19106363752572 L7.093031838073003,-33.17084402670325 L7.31224005505158,-33.14841056349797 L7.5257700918877,-33.12381729208768 L7.7331075360196015,-33.09712345981733 L7.933752893383756,-33.06839337446696 L8.127222791739817,-33.03769624932863 L8.313051145156681,-33.00510603646556 L8.49079027685433,-32.9707012485551 L8.66001199769639,-32.93456476974483 L8.820308637735277,-32.89678365597738 L8.971294028324817,-32.857448925265054 L9.112604432434319,-32.81665533841945 L9.243899420922952,-32.77450117076438 L9.364862692663367,-32.731087975381996 L9.47520283653881,-32.686520338462515 L9.574654033478025,-32.640905627346946 L9.662976696836694,-32.59435373186974 L9.739958049582636,-32.54697679962456 L9.80541263689431,-32.49888896579092 L9.833767021114234,-32.47461460392374 L9.859182772937743,-32.45020607817253 L9.881644582866297,-32.42567809132049 L9.901138920745497,-32.40104541810976 L9.917654043915142,-32.3763228963416 L9.931180004282577,-32.35152541793869 L9.941708654315043,-32.326667919974774 L9.949233651947456,-32.30176537567715 L9.953750464402614,-32.27683278540734 L9.955256370921592,-32.25188516762544 " />
			<path d="M9.955256370921592,-32.25188516762543 L9.954149478815033,-32.230496123035735 L9.950829292579414,-32.20911654859189 L9.945297282249904,-32.18775591024677 L9.937555897161932,-32.16642366556917 L9.915459689613705,-32.123882120452386 L9.884579798591481,-32.08156724714276 L9.844970907173963,-32.03955397814394 L9.796703156027291,-31.99791671186926 L9.739862019197757,-31.956729180894605 L9.674548152751681,-31.91606432139052 " />
			<path d="M9.67454815275168,26.159135528792067 L9.67454815275168,-31.916064321390515 " />
			<path d="M-10.04474362907841,-30.790634020039757 L-9.500636644605121,-30.7519158232392 " />
			<path d="M9.955256370921592,-32.251885167625424 L9.955256370921592,26.494956375026973 " />
			<path d="M-0.044743629078407565,-32.25188516762542 L-0.044743629078407565,26.49495637502698 " />

       </g>

       <!-- solid lines -->
       <g  stroke="rgb(0,0,0)" fill="none">
			<path d="M-0.9438583563660161,29.30625660207922 L-0.9328614970100977,29.29985054122134 " />
			<path d="M8.955630442186884,-4.432627481079833 L8.330515214423423,-3.5740110296423886 L7.697510049922941,-2.7102824741679443 L7.056968836005239,-1.8413493784499892 L6.4092576084816315,-0.9671351149553553 L5.093909292819832,0.7973276856577494 L3.755015671847585,2.583173030167953 L1.0261596782944706,6.214910245681949 L-0.35605168141775767,8.063842739875021 L-1.049439775117932,8.99736939113459 L-1.7428624729203532,9.93673362511345 L-2.434818646687929,10.881509890733373 L-3.1234560896653116,11.831038761983253 L-3.8068835552889606,12.784908838811099 L-4.146209184941077,13.26367019281292 L-4.483589992829885,13.743649115572833 L-4.818693816669165,14.224795284197997 L-5.151132980333108,14.707019825017468 L-5.480461420199999,15.190194775943318 L-5.806171660354628,15.674152642620461 L-6.127692232764779,16.158686954631087 L-6.444515037498484,16.643754091202325 L-6.755999451709071,17.129189851029615 L-7.061313097229393,17.61461664032425 L-7.359540772179418,18.09961241198166 L-7.649680285512364,18.583711017853613 L-7.930637839562926,19.066402849038653 L-8.067305283111763,19.30705031008652 L-8.20122296059761,19.547135764190838 L-8.332226051305636,19.786583747542554 L-8.460142977367157,20.02531630584671 L-8.58479520649578,20.26325304808366 L-8.705997047661045,20.500311204770533 L-8.82355760250508,20.736410183555268 L-8.937242839219603,20.97139336282382 L-9.046795672473541,21.205059901046823 L-9.151962491497523,21.437215983797127 L-9.252493190108376,21.667674893137956 L-9.348141163256116,21.896257010564977 L-9.438663303570943,22.122789819948355 L-9.523819997910227,22.347107910474804 L-9.603375123905519,22.569052979589674 L-9.677096046509535,22.78847383593899 L-9.744752956815946,23.00522421326698 L-9.806095775785415,23.21907745323271 L-9.860878283281389,23.429775107007558 L-9.908879333535761,23.637091777899908 L-9.949898429782614,23.840819971819315 L-9.983756128553852,24.04076973888428 L-10.010294443974864,24.236768315029998 L-10.029377252060163,24.428659763616096 L-10.040890689598454,24.61630448684906 L-10.044743619346729,24.799534432901552 " />
			<path d="M8.955630442186886,-4.43262748107984 L8.963898016345937,-5.129768262197646 L8.96665438547717,-5.824092961845436 L8.963898016345935,-6.515215360819591 L8.955630442186889,-7.202751021201012 " />
			<path d="M8.955630442186898,-7.2027510212012675 L8.644080978954154,-7.665020451541217 L8.330515214445358,-8.12585510875394 L8.014976927054505,-8.585253275378477 L7.697510049993808,-9.04321041567452 L7.378158971152255,-9.499718966571482 L7.056968836118875,-9.954768130672136 L6.733985854370671,-10.40834367131093 L6.409257608625246,-10.860427709666864 L6.08283336735812,-11.310998523931024 L5.754764400484715,-11.760030350528728 L5.425104298207048,-12.20749318739627 L5.093909293025092,-12.65335259931231 L4.761238584912827,-13.097569525283866 L4.427154669658984,-13.540100087986927 L4.09172367037246,-13.980895405261688 L3.7550156721524326,-14.419901403662397 L3.4171050599231503,-14.857058634061838 L3.0781177472840953,-15.292242135007697 L2.73824157072292,-15.725250842318902 L2.397491071609868,-16.156106770108796 L1.7134275946742015,-17.011436449201454 L1.0261596785656328,-17.85823194228301 L0.3361159798623299,-18.696244483099406 L-0.3560516811742085,-19.524965618231676 L-1.0494397748888442,-20.34361714537436 L-1.742862472706407,-21.15114139017315 L-2.434818646489761,-21.94619207098897 L-3.1234560894828665,-22.727126000955685 L-3.806883555120916,-23.49238661600253 L-4.483589992676077,-24.240984254132123 L-5.151132980193969,-24.97107368500263 L-5.806171660230559,-25.680089166712982 L-6.444515037389824,-26.364904211044102 L-7.061313097136603,-27.022158804819508 L-8.201222960536342,-28.23364855952296 L-8.705997047614938,-28.776016020346226 L-8.937242839180827,-29.028478480279663 L-9.151962491465792,-29.266984065402433 L-9.348141163231018,-29.490334307904067 L-9.523819997891218,-29.697480471054146 L-9.677096046495961,-29.88752370931596 L-9.744752956804813,-29.975890984789245 L-9.806095775776514,-30.059678272980623 L-9.860878283274493,-30.138772799293246 L-9.90887933353064,-30.213089443540827 L-9.94989842977902,-30.28256412242841 L-9.983756128551532,-30.34715328319073 L-10.010294443973548,-30.406833397230542 L-10.029377252059575,-30.46160045375699 L-10.040890689598305,-30.511469420148625 L-10.04474361934673,-30.556463236607485 " />
			<path d="M-19.821025483686366,27.96297321713958 L-19.707790957458066,27.89527892465581 L-19.59457121409195,27.82375874504884 L-19.481381034520293,27.74842201533798 L-19.368235195815785,27.669278570796358 L-19.255148469262387,27.58633874366692 L-19.142135618426906,27.49961336181352 L-19.02921139723162,27.409113747307348 L-18.916390548028147,27.31485171494884 L-18.803687799672776,27.216839570725224 L-18.691117865603648,27.115090110203976 L-18.57869544191989,27.00961661686233 L-18.46643520546302,26.900432860353146 L-18.35435181190088,26.787553094707224 L-18.242459893814324,26.67099205647246 L-18.13077405878692,26.550764962789966 L-18.019308887497917,26.42688750940746 L-17.90807893181874,26.299375868630193 L-17.797098712913208,26.168246687209592 L-17.6863827193418,26.033517084170057 L-17.575945405170152,25.895204648574047 L-17.465801188082082,25.75332743722581 L-17.35596444749732,25.607903972314055 L-17.246449522694306,25.458953238993853 L-17.137270710938136,25.306494682908127 L-17.02844226561408,25.15054820764899 L-16.91997839436677,24.99113417215933 L-16.811893257245394,24.82827338807492 L-16.704200964855083,24.66198711700746 L-16.596915576514753,24.492297067768817 L-16.49005109842166,24.319225393536982 L-16.38362148182287,24.142794688963896 L-16.277640621193928,23.963027987225722 L-16.1721223524249,23.77994875701587 L-16.067080451014096,23.59358089948107 L-15.858480539519366,23.21107705051258 L-15.651949814726713,22.815716178591742 L-15.447596124152147,22.40770473575132 L-15.245526178494226,21.98725577997899 L-15.045845495911188,21.554588863961328 L-14.848658346920814,21.10992992043643 L-14.654067699951796,20.65351114421491 L-14.462175167575023,20.185570870930977 L-14.273080953442904,19.706353452586818 L-14.086883799964376,19.21610912995532 L-13.903680936742985,18.71509390190779 L-13.723568029804905,18.203569391734803 L-13.546639131643463,17.68180271053015 L-13.372986632106205,17.150066317709072 L-13.202701210150185,16.608637878733678 L-13.035871786490663,16.057800120119833 L-12.87258547716791,15.497840681801275 L-12.71292754805642,14.929051966927936 L-12.556981370340237,14.351730989177065 L-12.404828376977646,13.766179217656731 L-12.256548020178023,13.17270241948278 L-12.11221772991296,12.571610500111449 L-11.97191287348341,11.963217341510994 L-11.835706716163894,11.347840638256757 L-11.703670382944393,10.725801731635464 L-11.575872821389856,10.097425441845239 L-11.452380765636718,9.463039898378877 L-11.333258701545246,8.82297636867916 L-11.218568833025913,8.177569085155511 L-11.108371049557357,7.527155070652416 L-11.002722894912928,6.872073962460707 L-10.901679537112114,6.212667834963634 L-10.805293739612548,5.549281021010285 L-10.713615833757666,4.882259932109705 L-10.62669369249436,4.211952877539547 L-10.54457270537438,3.5387098824637304 L-10.467295754852541,2.862882505154097 L-10.394903193894082,2.1848236534115033 L-10.327432824902912,1.5048874002822155 L-10.264919879981694,0.8234287991657423 L-10.207397002534137,0.14080369841086182 L-10.154894230219062,-0.5426314445034595 L-10.107438979265135,-1.2265197491053592 L-10.065056030154501,-1.9105040982881478 L-10.027767514682738,-2.5942273247919716 L-9.995592904401953,-3.2773323977116617 L-9.968549000452999,-3.9594626089333884 L-9.946649924792148,-4.6402617594027475 L-9.929907112816796,-5.319374345127031 L-9.918329307394062,-5.996445742814542 L-9.911922554295378,-6.671122395054025 L-9.91069019903947,-7.343051994937497 L-9.914632885145377,-8.011883670030096 L-9.923748553796404,-8.677268165590863 L-9.93803244491523,-9.338858026948747 L-9.957477099649527,-9.996307780938764 L-9.982072364266894,-10.649274116303305 L-10.011805395456985,-11.297416062964503 L-10.046660667038111,-11.940395170074236 L-10.086619978064801,-12.577875682748482 L-10.13166246233209,-13.209524717393936 L-10.181764599271553,-13.835012435535255 L-10.236900226233441,-14.454012216052192 L-10.297040552148447,-15.06620082573667 L-10.362154172562011,-15.671258588080748 L-10.432207086033294,-16.268869550207313 L-10.50716271189027,-16.85872164785632 L-10.586981909331648,-17.440506868340513 L-10.671622997865661,-18.013921411385407 L-10.761041779075052,-18.57866584776965 L-10.85519155969688,-19.134445275682822 L-10.954023176005105,-19.680969474719177 L-11.057485019483202,-20.217953057426723 L-11.16552306377344,-20.745115618332658 L-11.278080892888688,-21.26218188036726 L-11.395099730672085,-21.76888183860982 L-11.516518471489132,-22.264950901281484 L-11.642273712136227,-22.750130027911474 L-11.77229978494894,-23.22416586460447 L-11.906528792092782,-23.686810876338573 L-12.04489064101852,-24.13782347622468 L-12.18731308106353,-24.576968151659816 L-12.33372174118012,-25.004015587308626 L-12.484040168771074,-25.418742784848707 L-12.560641094561827,-25.621418363385885 L-12.638189869612138,-25.820933179417274 L-12.716676369864512,-26.017261186116635 L-12.796090348840643,-26.210376752698348 L-12.876421438979094,-26.400254667763544 L-12.95765915298881,-26.586870142591465 L-13.039792885218217,-26.770198814375664 L-13.122811913039826,-26.950216749404564 L-13.206705398250056,-27.126900446186074 L-13.291462388484192,-27.300226838515673 L-13.377071818646204,-27.470173298487744 L-13.463522512353325,-27.636717639449692 L-13.550803183395129,-27.799838118898386 L-13.638902437206943,-27.95951344131869 L-13.727808772357438,-28.115722760963603 L-13.81751058205014,-28.26844568457568 L-13.907996155638703,-28.417662274049402 L-13.999253680155752,-28.563353049034106 L-14.09127124185507,-28.70549898947716 L-14.184036827766953,-28.84408153810706 L-14.277538327266504,-28.979082602856067 L-14.371763533654697,-29.110484559222176 L-14.466700145751965,-29.238270252569986 L-14.562335769504124,-29.362423000370267 L-14.65865791960044,-29.482926594377865 L-14.755654021103592,-29.59976530274771 L-14.85331141109133,-29.71292387208862 L-14.951617340309646,-29.822387529454645 L-15.050558974837188,-29.928141984273683 L-15.150123397760746,-30.030173430213136 L-15.250297610861566,-30.128468546982322 L-15.351068536312273,-30.223014502071468 L-15.452423018384192,-30.313798952427003 L-15.554347825164848,-30.40081004606293 L-15.656829650285399,-30.484036423608135 L-15.759855114657785,-30.563467219789366 L-15.863410768221394,-30.6390920648497 L-15.96748309169896,-30.71090108590229 L-16.072058498361542,-30.77888490821934 L-16.17712333580227,-30.843034656455945 L-16.282663887718666,-30.903341955808767 L-16.38866637570332,-30.959798933109393 L-16.4951169610427,-31.012398217852173 L-16.60200174652378,-31.061132943156462 L-16.709306778248344,-31.105996746663074 L-16.817018047454674,-31.146983771364898 L-16.925121492346417,-31.18408866637156 L-17.03360299992835,-31.21730658760795 L-17.142448407848843,-31.24663319844665 L-17.251643506248783,-31.272064670274062 L-17.36117403961667,-31.293597682990253 L-17.47102570864969,-31.311229425442384 L-17.581184172120487,-31.324957595791723 L-17.69163504874936,-31.334780401814132 " />
			<path d="M-17.691635048749454,-31.33478040181414 L-17.822826119136117,-31.341361245222178 L-17.954383213740492,-31.342459432863507 L-18.08628223432519,-31.33807476357537 L-18.21849902001983,-31.328208040528462 L-18.351009351746782,-31.312861071079762 L-18.48378895665751,-31.29203666644151 L-18.616813512578823,-31.265738641166205 L-18.75005865246813,-31.233971812447933 L-18.883499968876933,-31.196741999239904 L-19.017113018421693,-31.1540560211886 L-19.150873326261305,-31.105921697384556 L-19.284756390580338,-31.052347844930058 L-19.418737687077183,-30.993344277324095 L-19.552792673456363,-30.928921802664735 L-19.686896793924095,-30.859092221669307 L-19.821025483686366,-30.783868325512824 " />
			<path d="M-19.821025483686366,27.96297321713958 L-0.9438583563660146,29.30625660207922 " />
			<path d="M19.11313171641185,27.502418913731706 L19.214259151606033,27.441631197853354 L19.309073315750084,27.380424335219452 L19.39753222922404,27.318825425587253 L19.479596726238686,27.25686174229549 L19.555230472176422,27.194560720188942 L19.6243999796787,27.131949943471444 L19.687074623472782,27.06905713349281 L19.74322665393126,27.00591013647501 L19.792831209358418,26.942536911183062 L19.83586632699793,26.878965516546106 L19.872312952756975,26.81522409923411 L19.902154949642615,26.75134088119576 L19.925379104906526,26.687344147162953 L19.941975135895053,26.623262232127598 L19.951935694601918,26.559123508796063 L19.955256370921592,26.49495637502699 " />
			<path d="M19.955256370921592,26.494956375026977 L19.95412689850876,26.457532130377317 L19.950738651364656,26.420113521681245 L19.945092139746833,26.38270618404359 L19.93718821399918,26.345315750871812 L19.92702806442383,26.30794785302761 L19.914613221101945,26.27060811797895 L19.89994555366326,26.23330216895258 L19.883027271004547,26.19603562408721 L19.842449389902242,26.121643188878465 L19.79290402039331,26.047475623573984 L19.73442100675571,25.97357760394179 L19.66703557697005,25.899993643385695 L19.59078832149952,25.826768066132047 L19.505725168839753,25.75394498053051 L19.411897357853192,25.681568252484816 L19.309361406904728,25.6096814790296 L19.198179079817145,25.53832796206917 L19.078417348666907,25.46755068229407 L18.95014835344268,25.397392273291096 L18.813449358590894,25.327894995862444 L18.668402706474552,25.259100712569364 L18.51509576777324,25.191050862515727 L18.353620888854323,25.123786436386663 L18.18407533614692,25.057347951757286 L18.006561237552262,24.99177542868645 L17.821185520925674,24.92710836561013 L17.628059849667203,24.86338571554907 L17.427300555459773,24.800645862644924 L17.219028568195352,24.738926599039086 L17.00336934313127,24.67826510210812 L16.78045278532069,24.6186979120695 L16.55041317136265,24.560260909971138 L16.31338906851886,24.502989296078006 L16.069523251245975,24.446917568668784 L15.818962615193598,24.392079503255413 L15.561858088719807,24.338508132237962 L15.2983645419776,24.286235725007177 L15.028640693626867,24.235293768506576 L14.75284901522824,24.185712948265916 L14.471155633376272,24.137523129917366 L14.183730229630992,24.090753341205563 L13.890745938308092,24.045431754502392 L13.59237924218927,24.001585669837 L13.288809866215626,23.959241498451277 L12.980220669228052,23.918424746890718 L12.66679753381992,23.879160001640226 L12.348729254368356,23.841470914314133 L12.026207423311561,23.805380187409366 L11.699426315740697,23.770909560630283 L11.36858277237583,23.738079797793525 L11.033876080996448,23.70691067432064 L10.695507856397947,23.67742096532611 L10.008604171804905,23.62354982244762 L9.309526529738541,23.576596149459803 L8.599959069470568,23.536673061873543 L7.881611201163523,23.503876737903685 L7.156213487752014,23.478286186767292 L6.425513475864999,23.45996305834352 L5.691271485832863,23.448951494653652 L4.955256370921595,23.445278023519123 L4.219241256010328,23.448951494653652 L3.4849992659781908,23.45996305834352 L2.7542992540911766,23.478286186767292 L2.0289015406796684,23.503876737903685 L1.310553672372623,23.536673061873543 L0.6009862121046483,23.576596149459803 L-0.09809142996171438,23.62354982244762 L-0.784995114554758,23.67742096532611 L-1.1233633391532578,23.706910674320635 L-1.4580700305326406,23.738079797793525 L-1.7889135738975064,23.770909560630283 L-2.115694681468371,23.805380187409362 L-2.438216512525166,23.841470914314133 L-2.7562847919767295,23.879160001640223 L-3.0697079273848615,23.918424746890718 L-3.378297124372436,23.959241498451277 L-3.6818665003460804,24.001585669837 L-3.9802331964648996,24.045431754502392 L-4.273217487787802,24.090753341205563 L-4.56064289153308,24.137523129917366 L-4.842336273385049,24.185712948265916 L-5.118127951783672,24.235293768506576 L-5.38785180013441,24.286235725007174 L-5.651345346876619,24.338508132237962 L-5.908449873350408,24.39207950325541 L-6.159010509402799,24.446917568668788 L-6.402876326675679,24.502989296078006 L-6.639900429519464,24.560260909971138 L-6.869940043477504,24.618697912069496 L-7.092856601288084,24.678265102108117 L-7.3085158263521635,24.738926599039083 L-7.516787813616586,24.800645862644924 L-7.717547107824014,24.863385715549068 L-7.910672779082487,24.927108365610128 L-8.096048495709077,24.99177542868645 L-8.273562594303732,25.057347951757286 L-8.443108147011134,25.12378643638666 L-8.604583025930054,25.191050862515727 L-8.757889964631364,25.25910071256936 L-8.902936616747706,25.32789499586244 L-9.039635611599486,25.397392273291093 L-9.167904606823715,25.467550682294068 L-9.287666337973953,25.538327962069168 L-9.398848665061536,25.609681479029597 L-9.501384616010002,25.681568252484812 L-9.595212426996564,25.753944980530505 L-9.680275579656335,25.826768066132047 L-9.756522835126862,25.89999364338569 L-9.823908264912525,25.97357760394179 L-9.882391278550124,26.047475623573984 L-9.931936648059057,26.12164318887847 L-9.972514529161362,26.19603562408721 L-9.989432811820077,26.23330216895258 L-10.00410047925876,26.27060811797895 L-10.016515322580645,26.30794785302761 L-10.026675472155993,26.345315750871812 L-10.034579397903649,26.382706184043588 L-10.040225909521471,26.420113521681245 L-10.043614156665575,26.457532130377317 L-10.044743629078408,26.49495637502695 " />
			<path d="M-10.044743629078408,26.494956375026977 L-10.04114228818365,26.561779910988708 L-10.03033999478688,26.628571359706065 L-10.012341935920224,26.695298649342295 L-9.987156753869742,26.761929738868464 L-9.95479654202557,26.828432633448898 L-9.915276839074949,26.894775399804413 L-9.86861662154086,26.960926181546007 L-9.814838294669917,27.026853214471608 L-9.753967681673823,27.092524841818584 L-9.68603401132963,27.157909529464643 L-9.61106990394469,27.22297588106985 L-9.529111355693077,27.287692653152487 L-9.440197721330993,27.352028770091497 L-9.34437169529944,27.415953339048365 L-9.24167929122326,27.479435664801166 L-9.132169819816374,27.542445264483792 L-9.015895865203811,27.604951882223165 L-8.89291325967194,27.666925503667464 L-8.763281056858977,27.72833637039838 L-8.627061503398693,27.789154994220482 L-8.484320009030894,27.84935217132082 L-8.335125115193051,27.908898996291974 L-8.17954846210816,27.96776687601182 L-8.017664754384624,28.025927543373342 L-7.849551725144689,28.0833530708579 L-7.675290098698635,28.140015883945416 L-7.494963551782693,28.195888774355097 L-7.30865867337924,28.250944913110253 L-7.116464923138604,28.305157863421023 L-6.918474588422448,28.358501593378737 L-6.714782739989332,28.41095048845591 L-6.505487186343743,28.462479363805773 L-6.29068842677054,28.51306347635552 L-6.070489603077325,28.5626785366874 L-5.8449964500679314,28.611300720701976 L-5.61431724477081,28.658906681057957 L-5.137846183400587,28.750978992250765 L-4.641991474289121,28.838718646812655 L-4.127705398755312,28.92195714209067 L-3.595975635272927,29.000534619838806 L-3.047823362649307,29.074300173223335 L-2.484301298867253,29.143112136637022 L-1.906491679356348,29.20683835776574 L-1.3155041785765418,29.265356451384974 L-0.7124737789054372,29.31855403439873 L-0.09855859092217845,29.366328941669554 L0.525062370726074,29.40858942222509 L1.1571914516035706,29.445254315464425 L1.796614657562845,29.476253207025742 L2.4421039862017433,29.501526564016046 L3.0924197852230924,29.52102584934315 L3.7463131331678117,29.53471361493041 L4.402528237949308,29.542563573635196 L5.059804848582799,29.54456064973292 L5.716880675477895,29.54070100786974 L6.372493814646275,29.530992060428318 L7.02538517116883,29.51545245329242 L7.674300877268038,29.49411203003781 L8.317994700341675,29.467011774618122 L8.955230436333299,29.43420373265578 L9.584784283843087,29.395750911489223 L10.205447194419525,29.351727159168256 L10.81602719451831,29.302217022630025 L11.415351674669157,29.247315585327918 L12.002269641454195,29.187128284625267 L12.575653927973057,29.121770709304514 L13.134403358549541,29.051368377580737 L13.677444863522508,28.976056496045857 L14.20373554005958,28.895979700006468 L14.712264655035973,28.811291775713958 L15.20205558613187,28.722155365020377 L15.439628828395303,28.6759721477768 L15.672167697420482,28.628741653027287 L15.899560532975581,28.58048655985347 L16.121698145844878,28.531230039327404 L16.338473870259126,28.480995743385314 L16.549783615114134,28.429807793470445 L16.755525913953157,28.37769076895044 L16.95560197368892,28.32466969531486 L17.14991572204195,28.270770032158477 L17.33837385367248,28.21601766095611 L17.52088587498364,28.160438872634884 L17.697364147574625,28.10406035494991 L17.867723930322754,28.046909179669363 L18.031883420074365,27.989012789575202 L18.189763790924964,27.930398985285734 L18.34128923206974,27.871095911906348 L18.486386984206334,27.811132045514825 L18.624987374472276,27.75053617948772 L18.757023849900428,27.68933741067443 L18.882433009376314,27.627565125425456 L19.001154634082,27.56524898548174 L19.11313171641183,27.50241891373172 " />
			<path d="M19.955256370921592,-32.25188516762543 L19.95412689850876,-32.28930941227509 L19.950738651364656,-32.32672802097116 L19.945092139746833,-32.36413535860881 L19.93718821399918,-32.40152579178059 L19.92702806442383,-32.4388936896248 L19.914613221101945,-32.47623342467346 L19.89994555366326,-32.51353937369983 L19.883027271004547,-32.5508059185652 L19.842449389902242,-32.62519835377394 L19.79290402039331,-32.699365919078424 L19.73442100675571,-32.77326393871061 L19.66703557697005,-32.84684789926671 L19.59078832149952,-32.92007347652036 L19.505725168839753,-32.9928965621219 L19.411897357853192,-33.065273290167596 L19.309361406904728,-33.13716006362281 L19.198179079817145,-33.20851358058324 L19.078417348666907,-33.27929086035834 L18.95014835344268,-33.34944926936131 L18.813449358590894,-33.41894654678997 L18.668402706474552,-33.48774083008305 L18.51509576777324,-33.55579068013668 L18.353620888854323,-33.623055106265745 L18.18407533614692,-33.68949359089512 L18.006561237552262,-33.75506611396596 L17.821185520925674,-33.81973317704228 L17.628059849667203,-33.88345582710334 L17.427300555459773,-33.946195680007484 L17.219028568195352,-34.00791494361332 L17.00336934313127,-34.06857644054429 L16.78045278532069,-34.12814363058291 L16.55041317136265,-34.18658063268127 L16.31338906851886,-34.243852246574406 L16.069523251245975,-34.299923973983624 L15.818962615193598,-34.354762039396995 L15.561858088719807,-34.40833341041444 L15.2983645419776,-34.46060581764523 L15.028640693626867,-34.51154777414583 L14.75284901522824,-34.56112859438649 L14.471155633376272,-34.60931841273504 L14.183730229630992,-34.65608820144685 L13.890745938308092,-34.701409788150016 L13.59237924218927,-34.745255872815406 L13.288809866215626,-34.78760004420113 L12.980220669228052,-34.82841679576169 L12.66679753381992,-34.86768154101218 L12.348729254368356,-34.905370628338275 L12.026207423311561,-34.94146135524304 L11.699426315740697,-34.975931982022125 L11.36858277237583,-35.00876174485888 L11.033876080996448,-35.03993086833177 L10.695507856397947,-35.0694205773263 L10.008604171804905,-35.12329172020479 L9.309526529738541,-35.1702453931926 L8.599959069470568,-35.21016848077886 L7.881611201163523,-35.24296480474872 L7.156213487752014,-35.26855535588511 L6.425513475864999,-35.28687848430889 L5.691271485832863,-35.297890047998756 L4.955256370921595,-35.30156351913328 L4.219241256010328,-35.297890047998756 L3.4849992659781908,-35.28687848430889 L2.7542992540911766,-35.26855535588511 L2.0289015406796684,-35.24296480474872 L1.310553672372623,-35.21016848077886 L0.6009862121046483,-35.1702453931926 L-0.09809142996171438,-35.12329172020479 L-0.784995114554758,-35.0694205773263 L-1.1233633391532578,-35.03993086833177 L-1.4580700305326406,-35.00876174485888 L-1.7889135738975064,-34.975931982022125 L-2.115694681468371,-34.94146135524304 L-2.438216512525166,-34.905370628338275 L-2.7562847919767295,-34.86768154101218 L-3.0697079273848615,-34.82841679576169 L-3.378297124372436,-34.787600044201135 L-3.6818665003460804,-34.74525587281541 L-3.9802331964648996,-34.701409788150016 L-4.273217487787802,-34.65608820144685 L-4.56064289153308,-34.60931841273504 L-4.842336273385049,-34.56112859438649 L-5.118127951783672,-34.51154777414583 L-5.38785180013441,-34.46060581764523 L-5.651345346876619,-34.40833341041444 L-5.908449873350408,-34.354762039396995 L-6.159010509402799,-34.299923973983624 L-6.402876326675679,-34.243852246574406 L-6.639900429519464,-34.18658063268127 L-6.869940043477504,-34.12814363058291 L-7.092856601288084,-34.06857644054429 L-7.3085158263521635,-34.00791494361332 L-7.516787813616586,-33.946195680007484 L-7.717547107824014,-33.88345582710334 L-7.910672779082487,-33.81973317704228 L-8.096048495709077,-33.75506611396596 L-8.273562594303732,-33.689493590895125 L-8.443108147011134,-33.623055106265745 L-8.604583025930054,-33.55579068013668 L-8.757889964631364,-33.48774083008305 L-8.902936616747706,-33.41894654678997 L-9.039635611599486,-33.349449269361315 L-9.167904606823715,-33.279290860358344 L-9.287666337973953,-33.20851358058324 L-9.398848665061536,-33.137160063622815 L-9.501384616010002,-33.065273290167596 L-9.595212426996564,-32.9928965621219 L-9.680275579656335,-32.920073476520365 L-9.756522835126862,-32.84684789926671 L-9.823908264912525,-32.77326393871062 L-9.882391278550124,-32.699365919078424 L-9.931936648059057,-32.62519835377394 L-9.972514529161362,-32.5508059185652 L-9.989432811820077,-32.51353937369983 L-10.00410047925876,-32.47623342467346 L-10.016515322580645,-32.4388936896248 L-10.026675472155993,-32.4015257917806 L-10.034579397903649,-32.36413535860882 L-10.040225909521471,-32.32672802097117 L-10.043614156665575,-32.28930941227509 L-10.044743629078408,-32.25188516762546 " />
			<path d="M-19.821025483686366,27.96297321713958 L-19.821025483686366,21.110596597472114 " />
			<path d="M-19.821025483686366,-26.947162905034848 L-19.821025483686366,-30.783868325512824 " />
			<path d="M-27.371892334614508,-17.124028306681012 L-27.371892334614508,-22.01959843523538 " />
			<path d="M-19.821025483686366,8.300942020556594 L-19.821025483686366,-14.13750832811932 " />
			<path d="M-27.371892334614508,18.12407661891043 L-27.371892334614508,13.228506490356063 " />
			<path d="M-17.508572510589623,8.465494235211699 L-17.508572510589623,21.27514881212722 " />
			<path d="M-17.508572510589623,-26.78261069037974 L-17.508572510589623,-13.97295611346422 " />
			<path d="M9.67454815275168,26.830777221261886 L9.739862019197757,26.7901123617578 L9.796703156027291,26.748924830783146 L9.844970907173963,26.707287564508466 L9.884579798591481,26.66527429550965 L9.915459689613705,26.62295942220002 L9.937555897161932,26.580417877083235 L9.945297282249904,26.559085632405633 L9.950829292579412,26.537724994060515 L9.954149478815033,26.51634541961667 L9.955256370921592,26.49495637502698 " />
			<path d="M9.955256370921592,26.494956375026977 L9.953750464402612,26.470008757245065 L9.949233651947452,26.445076166975255 L9.941708654315043,26.420173622677634 L9.931180004282574,26.39531612471372 L9.91765404391514,26.370518646310806 L9.901138920745495,26.345796124542645 L9.881644582866297,26.321163451331913 L9.859182772937743,26.29663546447988 L9.833767021114234,26.272226938728664 L9.80541263689431,26.247952576861486 L9.739958049582635,26.19986474302785 L9.662976696836694,26.152487810782674 L9.574654033478023,26.105935915305466 L9.475202836538806,26.060321204189894 L9.364862692663362,26.015753567270412 L9.243899420922947,25.972340371888027 L9.112604432434313,25.930186204232957 L8.971294028324811,25.889392617387355 L8.82030863773527,25.850057886675028 L8.66001199769638,25.812276772907577 L8.490790276854323,25.776140294097303 L8.313051145156676,25.741735506186842 L8.12722279173981,25.709145293323772 L7.933752893383749,25.678448168185447 L7.7331075360195936,25.649718082835076 L7.525770091887692,25.623024250564725 L7.312240055051571,25.598430979154436 L7.093031838072994,25.575997515949158 L6.8686735327470325,25.555777905126686 L6.639705637882685,25.537820857500524 L6.4066797571938965,25.522169633171252 L6.170157270437905,25.508861937309163 L5.930707981002223,25.49792982931921 L5.688908743198387,25.48939964560708 L5.445342072569382,25.48329193613249 L5.200594742558669,25.479621414902535 L4.95525637092158,25.478396924524358 L4.709917999284491,25.479621414902535 L4.465170669273778,25.48329193613249 L4.221603998644773,25.489399645607083 L3.979804760840937,25.49792982931921 L3.7403554714052554,25.508861937309167 L3.5038329846492635,25.522169633171252 L3.2708071039604762,25.537820857500524 L3.0418392090961284,25.55577790512669 L2.8174809037701674,25.575997515949158 L2.5982726867915904,25.59843097915444 L2.3847426499554714,25.623024250564725 L2.1774052058235696,25.649718082835076 L1.9767598484594147,25.678448168185447 L1.7832899501033546,25.709145293323772 L1.5974615966864905,25.741735506186842 L1.4197224649888427,25.776140294097306 L1.2505007441467821,25.81227677290758 L1.0902041041078938,25.85005788667503 L0.939218713518355,25.889392617387358 L0.7979083094088537,25.93018620423296 L0.6666133209202201,25.972340371888027 L0.5456500491798062,26.015753567270416 L0.435309905304365,26.060321204189894 L0.33585870836514875,26.105935915305466 L0.24753604500647874,26.152487810782674 L0.17055469226053965,26.199864743027852 L0.10510010494886401,26.247952576861486 L0.07674572072894037,26.272226938728668 L0.0513299689054314,26.296635464479884 L0.028868158976877112,26.321163451331916 L0.009373821097677926,26.345796124542648 L-0.007141302071966393,26.37051864631081 L-0.020667262439400425,26.395316124713723 L-0.03119591247186726,26.420173622677634 L-0.038720910104277806,26.445076166975255 L-0.0432377225594367,26.47000875724507 L-0.04474362907841556,26.49495637502697 " />
			<path d="M-0.04474362907841556,26.494956375026977 L-0.04354318211349639,26.51723088701422 L-0.0399424176479064,26.539494703253343 L-0.03394306469235442,26.561737133132084 L-0.025548004008859593,26.583947496307474 L-0.01476126672746858,26.606115127834286 L-0.0015880324105941312,26.628229383286126 L0.031891482391083414,26.672255321508523 L0.07482624350451239,26.715940759839533 L0.12713379538336333,26.759201801068816 L0.18871368218124385,26.801955363034107 L0.25944764067559944,26.84411933817925 L0.3391998273904111,26.885612751240476 L0.4278170794814926,26.926355914758147 L0.5251292088833743,26.96627058211531 L0.6309493291528501,27.005280097809102 L0.7450742143815141,27.043309544666457 L0.8672846894879793,27.080285887721406 L0.9973460511402439,27.116138114477565 L1.1350085184998129,27.150797371286576 L1.280007712921952,27.184197095580455 L1.432065165690791,27.216273143703972 L1.5908888528141993,27.246963914101574 L1.7561737558513553,27.276210465622206 L1.9276024476959575,27.303956630714875 L2.1048457021900875,27.330149123297588 L2.2875631263979606,27.35473764109243 L2.475403814325312,27.377674962230326 L2.6680070208289473,27.3989170359399 L2.8650028544222166,27.41842306714631 L3.0660129876459186,27.436155594817563 L3.2706513836403386,27.45208056390784 L3.47852503752309,27.466167390759683 L3.6892347311489218,27.47838902183946 L4.117538909348313,27.497146438023336 L4.552275291670337,27.508208788328123 L4.990105863475333,27.51149113326229 L5.427668852163158,27.50696827016076 L5.861604539703746,27.494674926697257 L6.076169147394958,27.485641508224024 L6.2885810593921665,27.474705494236577 L6.4984323418954295,27.46188788718106 L6.7053199787542415,27.44721330307407 L6.908846645453837,27.430709924227994 L7.108621472170785,27.41240944512729 L7.304260794432466,27.39234701155974 L7.495388889938752,27.37056115311949 L7.6816387001309145,27.347093709211563 L7.862652535121903,27.321989748699934 L8.038082760634259,27.295297483353473 L8.20759246562639,27.267068175255968 L8.370856109325022,27.237356038358108 L8.527560146421227,27.206218134360412 L8.67740362922936,27.173714263127117 L8.820098785652444,27.139906847841466 L8.955371571844038,27.104860815122937 L9.082962198505225,27.068643470336685 L9.20262562980594,27.03132436833462 L9.31413205397252,26.99297517987638 L9.417267324637645,26.953669553986767 L9.511833372105155,26.91348297651389 L9.597648583739835,26.8724926251598 L9.674548152751672,26.83077722126189 " />
			<path d="M-17.508572510589623,-26.78261069037974 L-25.05943936151776,-27.319924044355595 " />
			<path d="M-27.371892334614508,-22.01959843523538 L-25.059439361517764,-27.319924044355595 " />
			<path d="M-25.059439361517764,-27.319924044355595 L-25.059439361517764,-14.510269467440073 " />
			<path d="M-25.059439361517764,-14.510269467440075 L-27.371892334614508,-17.124028306681012 " />
			<path d="M-17.508572510589623,-13.97295611346422 L-25.05943936151776,-14.510269467440075 " />
			<path d="M-17.508572510589623,8.465494235211699 L-25.05943936151776,7.928180881235843 " />
			<path d="M-27.371892334614508,13.22850649035606 L-25.059439361517764,7.928180881235843 " />
			<path d="M-25.059439361517764,7.928180881235842 L-25.059439361517764,20.737835458151363 " />
			<path d="M-25.059439361517764,20.737835458151366 L-27.371892334614508,18.12407661891043 " />
			<path d="M-17.508572510589623,21.27514881212722 L-25.05943936151776,20.737835458151366 " />
			<path d="M9.67454815275168,26.830777221261883 L9.67454815275168,26.159135528792067 " />
			<path d="M-17.69163504874945,-31.334780401814136 L-10.04474362907841,-30.790634020039757 " />
			<path d="M-10.04474362907841,26.494956375026973 L-10.04474362907841,24.799534438455307 " />
			<path d="M-10.04474362907841,-30.556463231053762 L-10.04474362907841,-32.25188516762543 " />
			<path d="M19.955256370921596,26.494956375026977 L19.955256370921596,-32.25188516762543 " />

       </g>
    </g>
    <g transform="translate(20,210.0)" stroke="rgb(0,0,255)">
        <line x1="30" y1="-30" x2="75" y2="-33" stroke-width="3" stroke="#000000" />
         <text x="80" y="-30" style="stroke:#000000">X </text>

        <line x1="30" y1="-30" x2="30" y2="-75" stroke-width="3" stroke="#000000" />
         <text x="25" y="-85" style="stroke:#000000">Y </text>

        <line x1="30" y1="-30" x2="58" y2="-15" stroke-width="3" stroke="#000000" />
         <text x="65" y="-5" style="stroke:#000000">Z </text>
        <!--
            <line x1="0" y1="0" x2="2.775798811182033" y2="0" stroke-width="3" />
            <text x="0" y="20" style="stroke:#000000">1  mm </text>
        -->
    </g>
</svg>
